<svg width="21" height="13" fill="none" xmlns="http://www.w3.org/2000/svg"><path d="M20.673 11.315c0-.083-.083-.083-.083-.166-.332-.664-1.08-1.494-2.076-2.407-.498-.415-.747-.747-.913-.914-.25-.332-.25-.58-.166-.913.083-.249.415-.664.996-1.411.332-.415.498-.664.747-.913 1.246-1.66 1.827-2.74 1.66-3.238l-.082-.083c-.083-.083-.166-.166-.332-.166-.166-.083-.415-.083-.665 0h-3.736l-.083.083c-.083.083-.083.083-.083.166-.332.913-.747 1.66-1.162 2.49-.249.415-.498.83-.747 1.163-.25.332-.415.58-.581.747-.166.166-.332.249-.415.415-.084.083-.25.166-.25.083-.082 0-.165 0-.165-.083l-.25-.249c-.083-.083-.083-.25-.166-.415V1.353c0-.083-.083-.25-.083-.332L11.79.77c-.084-.08-.25-.08-.333-.164A7.447 7.447 0 009.963.44C8.634.44 7.72.522 7.389.69c-.166.083-.332.166-.415.332-.166.166-.166.249-.083.249.415.083.747.249.913.498l.083.166c.083.083.083.249.166.498.083.25.083.498.083.83v1.329c0 .415-.083.664-.083.913s-.083.415-.166.498c-.083.166-.083.25-.166.25 0 0 0 .082-.083.082s-.166.083-.332.083c-.083 0-.249-.083-.332-.166a1 1 0 01-.415-.415c-.166-.166-.332-.415-.498-.747-.166-.332-.415-.664-.581-1.163l-.167-.332c-.083-.166-.249-.498-.415-.913-.166-.415-.332-.747-.498-1.162a1.147 1.147 0 00-.249-.332h-.083s-.083-.083-.166-.083-.166-.083-.249-.083H.664c-.332 0-.498.083-.581.166L0 1.27v.166c0 .083 0 .166.083.332.415.996.913 1.992 1.411 2.989.499.913.997 1.743 1.329 2.324.415.581.747 1.163 1.162 1.66.415.499.664.831.747.997l.332.332.25.25c.166.165.415.414.747.663.332.25.747.498 1.162.748.415.249.913.415 1.411.58.582.167 1.08.25 1.578.167h1.245a.753.753 0 00.581-.25l.083-.082c0-.083.083-.083.083-.166v-.332c0-.332 0-.582.083-.83.083-.25.083-.416.166-.582.084-.166.167-.249.25-.332l.166-.166h.083c.166-.083.415 0 .58.166.25.166.499.415.665.664.166.25.415.498.747.83.332.333.581.582.747.665l.25.166c.165.083.332.166.58.249.25.083.416.083.582.083l2.822-.083c.25 0 .499-.083.665-.166.166-.083.249-.166.249-.332v-.332c-.166-.166-.166-.25-.166-.333z" fill="#fff"/></svg>