<svg width="104" height="50" fill="none" xmlns="http://www.w3.org/2000/svg"><path fill-rule="evenodd" clip-rule="evenodd" d="M.926 1.572h10.95c2.621 0 5.194.194 7.744.607 2.525.389 4.904 1.505 7.137 3.302 2.088 1.772 3.714 4.03 4.88 6.774 1.19 2.742 1.845 5.559 1.942 8.472.048.195.072.413.072.632v1.067c-.072 3.036-.704 5.948-1.893 8.789-1.165 2.817-2.89 5.123-5.172 6.943-2.014 1.481-4.151 2.428-6.457 2.865-2.282.461-4.637.704-7.017.8H.927V1.574zm8.012 32.993c.267 0 .558 0 .873.025.316.024.656.024.996.024h.655c.232.048.468.073.704.073h.656c.389 0 .777-.024 1.165-.049.389 0 .777-.048 1.19-.073a18.92 18.92 0 003.472-.631c1.116-.34 2.112-.85 2.937-1.529 1.287-1.092 2.258-2.574 2.913-4.418a17.734 17.734 0 001.02-5.754v-.825a18.07 18.07 0 00-.995-5.705c-.632-1.846-1.579-3.35-2.817-4.516a7.163 7.163 0 00-3.131-1.748 16.278 16.278 0 00-3.641-.534 4.755 4.755 0 00-.826-.072H8.938v25.732zm47.268 6.604l-2.453-2.89a13.113 13.113 0 01-3.616 2.38 12.45 12.45 0 01-4.176 1.116c-.144.029-.29.045-.437.049h-.437c-.316 0-.607-.024-.922-.049-.316-.024-.607-.073-.923-.096a12.783 12.783 0 01-1.82-.51 9.395 9.395 0 01-1.724-.826c-.995-.68-1.772-1.578-2.38-2.67-.606-1.118-.97-2.259-1.092-3.424-.024-.147-.024-.291-.024-.413v-.679c.024-.122.024-.243.024-.365 0-.048.024-.073.024-.096.025-.049.025-.074.025-.147 0-.048.024-.122.024-.218.024-.073.024-.145.024-.195.315-1.723 1.044-3.155 2.21-4.296 1.165-1.142 2.452-2.138 3.835-3.035a14.147 14.147 0 01-2.16-2.987 6.701 6.701 0 01-.874-3.277c0-.219 0-.437.048-.68.025-.219.049-.461.073-.655.049-.17.073-.316.122-.461.048-.17.097-.316.12-.462.486-1.53 1.433-2.622 2.818-3.326a9.573 9.573 0 014.418-1.068c1.966 0 3.763.535 5.39 1.602 1.626 1.044 2.452 2.622 2.452 4.662v.51c-.122 1.286-.608 2.403-1.433 3.325a21.638 21.638 0 01-2.67 2.501 3.536 3.536 0 00-.632.412 8.52 8.52 0 01-.582.413l4.928 5.754c.267-.242.51-.486.753-.729.243-.241.461-.484.68-.752.509-.485.995-.995 1.48-1.505.486-.533.947-1.044 1.383-1.577l3.278 3.472c-.364.388-.752.776-1.117 1.165-.37.39-.734.787-1.092 1.19-.412.387-.8.776-1.165 1.164l-1.092 1.166 5.39 6.506h-6.678v.001zm-13.984-6.045c.316.413.631.753.922 1.02.316.29.631.486.971.655.316.17.607.316.923.388.315.074.607.122.923.122a4.53 4.53 0 001.82-.388 9.698 9.698 0 001.554-.923 9.814 9.814 0 001.408-1.238l-5.511-6.579c-.121.073-.243.17-.389.243-.122.072-.218.17-.315.242a13.738 13.738 0 00-1.651 1.7 5.755 5.755 0 00-1.117 1.966c-.048.17-.097.34-.122.51-.048.17-.048.364-.048.534 0 .316.048.608.17.899.122.29.292.581.462.85zM46.64 22.5c.049-.024.073-.048.098-.072.048-.025.072-.025.145-.073.024-.024.073-.049.097-.097.025-.024.049-.024.097-.024a24.26 24.26 0 001.7-1.36c.51-.485.849-1.117 1.02-1.87v-.558c0-.802-.292-1.457-.85-1.942a3.383 3.383 0 00-1.797-.874h-.632c-.485.048-.97.267-1.408.631-.437.34-.704.874-.752 1.578 0 .025-.025.073-.025.122-.024.049-.024.097-.024.17 0 .024-.024.049-.024.097-.024.049-.024.097-.024.17 0 .607.17 1.19.51 1.7.34.533.703 1.043 1.092 1.529.17.145.291.29.413.437l.364.436zm57.271-2.597v1.335c0 3.642-.607 7.04-1.821 10.22-1.214 3.18-3.545 5.755-7.065 7.72-1.117.729-2.33 1.263-3.69 1.676a26.24 26.24 0 01-4.005.85c-.486.024-.948.072-1.384.097-.462 0-.9.024-1.336.024h-.777a4.16 4.16 0 01-.776-.073c-3.253-.194-6.36-1.093-9.395-2.671-3.01-1.554-5.463-3.665-7.308-6.311a20.744 20.744 0 01-2.21-4.54 22.846 22.846 0 01-1.115-4.88c-.025-.316-.073-.68-.098-1.02 0-.364-.024-.728-.024-1.093 0-3.86.995-7.526 3.01-11.022 2.015-3.496 4.856-6.142 8.521-7.938a14.528 14.528 0 012.404-.947c.826-.267 1.65-.486 2.525-.704.81-.17 1.628-.29 2.452-.364A20.371 20.371 0 0184.223.14h.582c3.155.073 6.214.826 9.201 2.21a23.507 23.507 0 017.696 5.826l-5.826 4.248c-1.603-1.578-3.278-2.791-5.075-3.666a13.277 13.277 0 00-5.73-1.286c-.673.005-1.345.045-2.014.121-.718.096-1.43.226-2.136.389-2.987.922-5.22 2.646-6.75 5.171-1.505 2.549-2.258 5.22-2.258 8.084 0 .195 0 .413.025.656.023.219.072.437.096.656 0 .12.025.242.049.34.025.096.025.218.025.34.048.096.073.194.096.315.025.122.025.243.025.315.534 3.132 1.87 5.609 4.055 7.381 2.184 1.772 4.539 2.864 7.088 3.228.34.097.729.147 1.117.17.388.025.752.025 1.092.025 2.427 0 4.564-.655 6.482-1.942 1.894-1.311 2.84-3.156 2.84-5.584l.122-.267h-9.906v-6.967h18.792zm-74.969 25.54h1.53c1.068 0 1.966.946 1.966 2.136 0 1.166-.898 2.112-1.967 2.137h-1.529v-4.273zm.656.51v3.253h.704c.971-.025 1.457-.801 1.457-1.603 0-.825-.486-1.505-1.288-1.626l-.873-.025zm5.414-.608c1.31 0 2.355.996 2.355 2.234 0 1.239-1.044 2.234-2.355 2.234-1.287 0-2.355-.995-2.355-2.234 0-1.238 1.068-2.234 2.355-2.234zm0 .535a1.71 1.71 0 011.723 1.7c0 .922-.776 1.675-1.723 1.675-.923 0-1.7-.753-1.7-1.676a1.704 1.704 0 011.7-1.7zm2.549-.437h.631v3.763h1.214v.51h-1.845v-4.273zm3.884-.122c.486 0 .947.146 1.336.389v.777a1.718 1.718 0 00-1.336-.631c-.947 0-1.7.776-1.7 1.723a1.705 1.705 0 001.7 1.7 1.72 1.72 0 001.336-.63v.8c-.4.252-.863.386-1.336.388-1.286 0-2.355-1.019-2.355-2.258 0-1.238 1.069-2.258 2.355-2.258zm2.185 3.885h1.53v.51h-2.185v-4.273h2.185v.485h-1.53v1.263h1.53v.51h-1.53v1.505zm3.933.218a.86.86 0 01-.243.17.853.853 0 01-.267.097c-.024 0-.048 0-.072.025h-.073c-.073 0-.122-.025-.194-.025a.718.718 0 01-.195-.097 1.325 1.325 0 01-.145-.195l-.073-.218v-.123h.024v-.048a.574.574 0 01.17-.315l.292-.219-.146-.218c-.049-.048-.073-.145-.073-.218v-.097c.024 0 .024-.024.024-.024a.501.501 0 01.146-.243.554.554 0 01.267-.073h.073c.097 0 .218.05.315.121a.42.42 0 01.122.316c0 .122-.024.218-.097.291-.097.097-.17.17-.267.218l.46.56c.025-.05.074-.098.123-.172.048-.048.072-.096.12-.145l.147.145c-.025.05-.073.099-.097.147a.642.642 0 01-.122.145l-.024.025s0 .025-.024.025l.34.388h-.291l-.22-.244zm-.558.073a.394.394 0 00.218-.073c.049-.048.121-.097.17-.145h.025l.024-.025-.534-.607c0 .024 0 .024-.024.024l-.025.025c-.048.023-.072.048-.12.072-.05.05-.074.073-.098.121-.024 0-.024.025-.024.049-.025.025-.025.05-.025.073-.024.025-.024.049-.024.049v.073a.4.4 0 00.097.266.424.424 0 00.291.098h.049zm-.195-1.505v.049c0 .048 0 .097.025.145a.5.5 0 00.096.122l.049.05.024.023h.024s.025 0 .025-.024a.532.532 0 00.146-.098.39.39 0 00.096-.17v-.048a.221.221 0 00-.072-.17.34.34 0 00-.146-.049h-.049c-.048 0-.097 0-.145.049a.133.133 0 00-.073.121zm4.686-2.695a2.492 2.492 0 012.039 1.068l-.558.291a1.732 1.732 0 00-1.457-.8c-.97 0-1.723.776-1.723 1.723 0 .947.752 1.7 1.723 1.7.802 0 1.432-.39 1.481-1.214h-1.384v-.51h2.064v.024c0 1.335-.729 2.282-2.186 2.282-1.456 0-2.379-1.02-2.379-2.282s1.07-2.282 2.38-2.282zm1.82 4.418l1.774-4.273h.412l1.773 4.273h-.68l-.486-1.213h-1.626l-.486 1.213h-.68zm1.409-1.747l.583-1.53.558 1.53h-1.141zm8.764 1.747l1.748-4.273h.413l1.773 4.273h-.68l-.486-1.213h-1.626l-.486 1.213h-.655zm1.384-1.747l.583-1.53.582 1.53h-1.165zm7.065 1.747l1.772-4.273h.413l1.772 4.273h-.68l-.51-1.213h-1.601l-.486 1.213h-.68zm1.408-1.747l.559-1.53.583 1.53h-1.142zm-14.543-2.04c.438.05.583.22.583.656 0 .413-.29.63-.654.63h-.56v-1.287h.631v.001zm.05 1.796h.023c.316 0 .874.073.874.778 0 .558-.486.704-.947.704h.098-.729v-1.482h.68zm-.826 1.991h1.092c.753 0 1.311-.51 1.311-1.213 0-.559-.34-.972-.825-1.141.267-.17.412-.486.412-.874 0-.631-.412-1.044-1.067-1.044-.34-.025-.704 0-1.044 0h-.388v4.273h.509zm4.03-3.787c.412.05.559.22.583.656 0 .413-.292.63-.656.63h-.558v-1.287h.63v.001zm.024 1.796h.024c.316 0 .874.073.874.778 0 .558-.485.704-.946.704h.12-.727v-1.482h.655zm-.825 1.991h1.117c.753 0 1.287-.51 1.287-1.213 0-.559-.34-.972-.825-1.141.29-.17.436-.486.436-.874 0-.631-.437-1.044-1.067-1.044-.365-.025-.704 0-1.069 0h-.388v4.273h.509zm6.458-4.272h.412l2.986 3.155v-3.155h.583v4.273h-.437l-2.938-3.132v3.132h-.606v-4.273z" fill="#000"/></svg>