<svg width="141" height="50" fill="none" xmlns="http://www.w3.org/2000/svg"><path fill-rule="evenodd" clip-rule="evenodd" d="M63.983 2.008h-7.325v22.28c0 4.273-1.22 8.343-6.815 8.343-5.698 0-7.224-4.07-7.224-8.343V2.008h-7.223v22.687c0 7.223 4.374 13.123 14.447 13.123 9.97 0 14.14-5.901 14.14-13.123V2.008zM.806 36.903h7.223V20.727h14.345v16.176h7.12V2.008h-7.12v13.429H8.029V2.007H.806v34.896zm99.598-25.942C97.76 4.145 92.571.483 85.449.483c-10.58 0-17.6 7.731-17.6 18.718 0 11.904 6.205 18.618 17.091 18.618 2.544 0 7.428-1.221 9.767-3.866v3.053h6.003V17.88H85.653v5.189h8.445c0 5.188-3.765 9.97-8.649 9.97-7.325 0-9.97-7.224-9.97-13.836 0-6.205 2.951-13.836 9.97-13.836 5.799 0 8.037 5.29 8.75 8.14l6.205-2.545zM3.45 49.722v-3.46h3.257v3.46h1.729V41.89h-1.73v3.153H3.45V41.89H1.823v7.833H3.45zm19.84-7.832v4.272c0 1.323 0 2.441-1.73 2.441-1.628 0-1.628-1.118-1.628-2.441V41.89h-1.729v4.883c0 2.035 1.526 3.053 3.357 3.053 1.933 0 3.459-1.018 3.459-3.053V41.89H23.29zm16.786 4.985V48.4a5.478 5.478 0 01-1.525.203c-1.628 0-2.238-1.015-2.238-2.745 0-1.832.61-2.85 2.136-2.85.916 0 1.526.612 1.526 1.323h1.73c0-1.526-1.323-2.544-3.358-2.544-1.627 0-3.866.915-3.866 4.07 0 3.052 2.137 3.969 3.968 3.969 1.627 0 2.646-.306 3.255-.612v-3.662H38.55v1.323h1.525zm78.337-2.747c0-1.629-1.526-2.441-2.95-2.441-1.426 0-3.053.812-3.053 2.441 0 1.118.814 1.73 1.933 2.034.306.102.917.205 1.221.306 1.017.306 1.424.611 1.424 1.22 0 .915-.813 1.12-1.322 1.12-1.221 0-1.73-.711-1.73-1.526h-1.627c0 1.627 1.221 2.645 3.357 2.645 1.628 0 3.154-.915 3.154-2.442 0-1.22-.915-1.933-2.136-2.238-.408-.1-.814-.203-1.22-.407-.917-.203-1.324-.509-1.324-1.12 0-.507.407-1.017 1.324-1.017.915 0 1.321.612 1.321 1.426h1.628v-.001zm16.685 0c0-1.629-1.629-2.441-3.053-2.441s-3.051.812-3.051 2.441c0 1.118.812 1.73 1.933 2.034.304.102.915.205 1.221.306 1.118.306 1.424.611 1.424 1.22 0 .915-.814 1.12-1.324 1.12-1.22 0-1.729-.711-1.729-1.526h-1.628c0 1.627 1.221 2.645 3.357 2.645 1.629 0 3.154-.915 3.154-2.442 0-1.22-.915-1.933-2.135-2.238-.407-.1-.814-.203-1.221-.407-.915-.203-1.323-.509-1.323-1.12 0-.507.408-1.017 1.323-1.017s1.323.612 1.323 1.426h1.729v-.001zm-79.964 5.798c2.645 0 3.865-1.83 3.865-4.068 0-2.34-1.22-4.171-3.865-4.171-2.646 0-3.866 1.83-3.866 4.17 0 2.239 1.22 4.07 3.866 4.07zm0-7.019c1.729 0 2.035 1.527 2.035 2.95 0 1.322-.305 2.849-2.035 2.849-1.73 0-2.035-1.527-2.035-2.848 0-1.424.305-2.95 2.035-2.95zm26.654 6.816c1.628 0 3.052-.711 3.052-2.135 0-1.221-.915-1.935-1.831-1.935.612-.101 1.424-.813 1.424-1.728 0-1.426-1.017-2.035-2.645-2.035h-3.459v7.833h3.46zm-1.73-1.22v-2.239h1.527c.712 0 1.322.204 1.322 1.12 0 .915-.61 1.118-1.322 1.118h-1.526zm0-3.358V43.11h1.527c.712 0 1.118.406 1.118 1.017 0 .61-.61 1.017-1.22 1.017h-1.424zm18.415 4.782c2.747 0 3.968-1.73 3.968-4.172 0-2.339-1.221-4.068-3.968-4.068-2.645 0-3.865 1.73-3.865 4.068-.001 2.442 1.22 4.172 3.865 4.172zm0-7.02c1.73 0 2.136 1.527 2.136 2.848 0 1.424-.407 2.95-2.136 2.95s-2.035-1.526-2.035-2.95c0-1.321.305-2.848 2.035-2.848zM122.38.076c-10.785 0-17.907 8.138-17.907 19.125 0 11.09 7.122 19.127 17.907 19.127 10.885 0 18.007-8.037 18.007-19.127 0-10.987-7.122-19.126-18.007-19.126zm0 4.78c7.223 0 10.276 8.038 10.276 14.345 0 6.309-3.053 14.243-10.276 14.243-7.121 0-10.174-7.934-10.174-14.243 0-6.307 3.053-14.345 10.174-14.345z" fill="#000"/></svg>