<svg width="80" height="50" fill="none" xmlns="http://www.w3.org/2000/svg"><path fill-rule="evenodd" clip-rule="evenodd" d="M12.248 46.695a.683.683 0 00-.037.085c-1.009 1.905-2.989 3.203-5.249 3.203-3.278 0-5.968-2.746-5.968-6.136 0-3.372 2.69-6.137 5.968-6.137 2.27 0 4.26 1.327 5.258 3.26.028.037.037.056.066.112.01.01-1.906 1.392-1.924 1.364-.01-.037-.019-.066-.038-.084-.55-1.373-1.858-2.289-3.362-2.26-2.008.018-3.661 1.68-3.661 3.745 0 2.082 1.653 3.764 3.661 3.764 1.457 0 2.727-.897 3.306-2.167.028-.047.038-.084.056-.122l1.924 1.373zm2.475-8.872h2.298v4.287h6.033v-4.287h2.317v11.926h-2.317v-5.24h-6.033v5.24h-2.298V37.823zM57.798 49.75V37.822h8.34v2.41h-6.015v2.38h5.557v2.382h-5.557v2.382h6.865v2.372h-9.19zm12.45 0V37.822h2.334v9.554h6.482v2.372h-8.816zm-24.984 0h-2.335V37.822h3.241l5.109 7.172v-7.172h2.316v11.926h-1.85l-6.481-8.994v8.994zM34.14 40.232l-2.035 4.763h4.165l-2.13-4.763zm-3.082 7.145l-1.064 2.372h-2.765l5.286-11.926h3.232l5.323 11.926h-2.764l-1.074-2.372h-6.174zM41.229 33.23a17.397 17.397 0 01-8.695 2.309c-6.533 0-12.255-3.562-15.35-8.843 0-.024-.024-.024-.024-.049 0-.024-.025-.024-.025-.05l2.505-1.3 2.505-1.278c.026.025.05.049.075.099 2.136 3.462 5.968 5.772 10.314 5.772 1.4 0 2.752-.246 3.955-.64a17.44 17.44 0 01-4.298-11.494A17.63 17.63 0 0136.44 6.262a11.962 11.962 0 00-3.906-.638c-4.297 0-8.276 2.309-10.462 6.017-.025.025-.025.05-.025.074l-5.034-2.603a.572.572 0 01.073-.123C20.157 3.61 25.952 0 32.534 0c3.193 0 6.19.86 8.695 2.334C43.734.86 46.73 0 49.922 0c6.582 0 12.379 3.61 15.448 8.989.025.025.05.074.074.123l-5.035 2.603c0-.023 0-.05-.024-.074-2.186-3.708-6.164-6.017-10.463-6.017-1.374 0-2.701.221-3.904.638a17.63 17.63 0 014.249 11.494 17.44 17.44 0 01-4.299 11.495c1.204.393 2.555.639 3.954.639 4.348 0 8.18-2.31 10.316-5.772.024-.05.049-.074.073-.1l2.505 1.279 2.505 1.3c0 .025-.024.025-.024.05s-.025.025-.025.05c-3.094 5.28-8.817 8.842-15.35 8.842-3.191 0-6.188-.861-8.693-2.31zm0-7.05c-2.064-2.185-3.39-5.156-3.39-8.424 0-3.216 1.253-6.14 3.39-8.325a11.816 11.816 0 013.389 8.325c0 3.268-1.327 6.24-3.39 8.425z" fill="#000"/></svg>