<svg width="316" height="48" fill="none" xmlns="http://www.w3.org/2000/svg"><path fill-rule="evenodd" clip-rule="evenodd" d="M17.098.675l.108 1.03H12.01l9.89 35.678c2.56-8.574 7.398-23.368 9.782-32.083.355-1.317-.249-2.49-1.173-2.987-.746-.39-2.455-.25-3.45-.285L26.916.675h11.952v1.03c-1.6.071-4.446.356-5.016 1.957-5.05 13.694-10.563 32.191-14.192 43.891h-.569L5.468 1.706H1.092L.986.676h16.112zm37.988 31.338l-11.559-.108c-1.175 3.522-2.24 7.79-3.024 11.24-.284 1.352-.106 1.815.32 2.421.426.607 3.06.214 4.66.319l-.105.996H34.385l-.106-.996c1.032-.105 3.629.286 3.984-.746 3.77-10.562 9.46-32.866 13.232-45.137h.64l13.162 45.883h4.16v.996H53.843v-.996h5.264l-4.021-13.872zm-5.691-20.916l-5.583 20.025h11.097l-5.514-20.025zm27.993-9.07h-5.441V.675H88.45v1.352h-5.514v43.965c2.74 0 5.585-.144 8.323-.072 10.422.283 12.449-4.019 12.414-13.801l.783-.105-.106 14.867H71.876v-.887h5.512V2.027zm35.534.142h-4.767V.817h29.132l.781 11.56-.748-.106c-.461-3.77-.64-4.874-2.241-7.008-1.601-2.135-4.517-2.845-7.683-2.88l-8.75-.107-.106 21.057c1.529-.035 3.093-.035 4.624-.143 1.53-.07 3.842-.888 4.66-2.063.818-1.175.96-3.273 1.103-6.224h.818l.106 17.179h-1.138c0-.07-.035-.177-.035-.319-.036-2.062.249-3.805-.995-5.655-.746-1.174-3.166-2.026-5.301-1.957l-3.84.108.106 21.803c5.228-.036 14.335.89 18.282-3.095 1.672-1.67 2.099-5.265 2.099-9.033l1.068.072-.071 12.874h-31.763l-.106-.925h4.766V2.17h-.001zm63.242.107c-.674-.64-3.45-.39-4.765-.39l.104-1.21 11.385.072v.96c-3.808.105-5.086-.391-5.195 3.414-.356 10.67-.07 34.004-.105 42.433l-.997.072L150.378 3.7c-.071 6.51-.25 29.489-.25 38.63 0 4.588 2.455 3.45 5.762 3.377v1.174h-12.059v-.96c5.477-.141 5.442.177 5.513-6.58.106-11.986.178-24.722.214-37.597-2.703.035-4.092.07-5.442.07V.675l11.666.07 20.88 34.753c-.035-3.485.104-23.655.034-30.982-.032-1.28-.318-2.098-.532-2.24zm95.396.036c-.674-.64-3.45-.39-4.765-.426l.104-1.174 11.386.07v.96c-3.809.071-5.052-.427-5.196 3.38-.356 10.705-.069 34.004-.105 42.433l-.997.072L245.775 3.7c-.072 6.545-.249 29.489-.249 38.63 0 4.588 2.453 3.45 5.762 3.377v1.174h-12.059v-.96c5.479-.141 5.479.177 5.514-6.545.105-12.023.177-24.722.214-37.599-2.667.036-4.091.036-5.442.036V.709l11.668.07 20.878 34.717c-.035-3.485.105-23.654.036-30.947-.037-1.278-.323-2.096-.537-2.237zm-72.525-.393c-4.943-.106-9.388.285-11.099 2.385-1.742 2.1-1.566 5.05-1.99 9.78l-.783.106.069-13.515h33.437l.177 13.623h-.891c-.459-5.336-.355-8.322-2.167-10.067-1.815-1.742-7.007-2.42-11.03-2.42l-.104 43.998 5.479.108v.996h-16.792v-.996h5.587l.107-43.998zm27.709.108h-4.802V.675h15.295v1.352h-4.91v43.784h4.696v1.104h-15.402v-1.104h5.123V2.027zm71.814-1.21c-.463 0-.96.035-1.46.143a12.17 12.17 0 00-1.528.426c-1.991.78-3.841 2.774-5.511 6.01-1.674 3.274-2.49 8.68-2.49 16.292 0 7.542.814 12.911 2.453 16.182 1.67 3.236 3.485 5.265 5.441 6.084.533.245 1.066.39 1.566.496.497.108.997.142 1.529.142.497 0 .997-.034 1.529-.142a6.92 6.92 0 001.601-.496c1.957-.856 3.768-2.916 5.407-6.156 1.67-3.271 2.49-8.643 2.49-16.11 0-6.901-.711-11.917-2.098-15.118-1.387-3.2-2.916-5.37-4.592-6.474a6.742 6.742 0 00-2.276-1.03 9.279 9.279 0 00-2.061-.25zm-17.251 22.977c0-6.756 1.566-12.2 4.696-16.29 3.13-4.125 6.544-6.544 10.312-7.292.391-.07.783-.106 1.174-.141.391-.071.749-.071 1.105-.071 4.478 0 8.501 2.206 12.055 6.688 3.558 4.446 5.337 10.173 5.337 17.108 0 6.545-1.424 11.773-4.268 15.723-2.844 3.95-5.975 6.438-9.356 7.468a7.451 7.451 0 01-1.884.5c-.623.1-1.254.148-1.884.142-.986.002-1.967-.13-2.917-.39-1.069-.25-2.135-.674-3.239-1.211-2.772-1.566-5.334-4.16-7.646-7.754-2.347-3.63-3.521-8.432-3.485-14.48z" fill="#000"/></svg>