<svg width="174" height="50" fill="none" xmlns="http://www.w3.org/2000/svg"><path fill-rule="evenodd" clip-rule="evenodd" d="M7.512.069l-4.59 11.474c-.699 1.696-1.498 2.694-2.494 2.893h-.2v.798h4.69v-.798h-.2c-.998 0-1.496-.4-1.496-1.197l.699-2.195.299-.799h5.288l1.397 3.493c0 .498-.498.698-1.497.698h-.2v.798h6.286v-.798h-.1c-.498 0-.998-.199-1.197-.498l-.998-1.996L8.21.07h-.698zm1.895 9.379h-4.89L6.913 3.76l2.495 5.687zm17.46-8.381c-.898 0-1.497.2-1.695.4-.2.498-.3 1.096-.3 2.294v8.181c0 1.098.1 1.797.3 1.996.2.3.798.498 1.996.498h.798c1.397 0 2.395-.4 2.994-1.197.498-.498.898-1.497 1.197-2.695h.798l-.1 4.69H19.883v-.798h.499c.798 0 1.297-.199 1.497-.498.1-.4.3-1.197.3-2.395V3.761c0-1.198-.2-1.995-.3-2.294-.2-.2-.898-.4-1.697-.4h-.299V.469h7.484v.598h-.5zm20.256 3.89v4.99h-.799v-.2c0-.798-.2-1.297-.398-1.696l-1.596-.299h-1.498v3.692c0 1.297.1 2.095.3 2.494.2.3.798.498 1.796.498h.898c1.496 0 2.494-.4 3.093-1.197.499-.798.998-1.696 1.198-2.695h.797l-.299 4.69H37.943v-.798h.2c.797 0 1.297-.199 1.695-.498.1-.4.1-1.197.1-2.395V3.761c0-1.198 0-1.796-.1-2.196a2.454 2.454 0 00-1.496-.498h-.2V.469h11.176l.3 3.592h-.699c-.1-.998-.5-1.597-.798-1.996-.5-.6-1.498-.998-2.994-.998h-2.295v5.887h1.498c.797 0 1.297-.2 1.596-.4.199-.099.398-.598.398-1.495v-.101h.799zm25.943 10.278h-7.983v-.797h.2c1.097 0 1.796-.2 1.796-.7l-.998-1.796-2.494-2.994-2.295 2.594-.998 1.896c0 .599.498.998 1.297.998h.2v.798h-5.987v-.798h.1c1.396-.199 2.893-1.197 4.39-2.993l2.793-3.193-3.79-4.49L57.4 1.466c-.3-.2-.797-.4-1.496-.4h-.1V.468h7.084v.598h-.3c-.798 0-1.196.2-1.196.699l.898 1.297 2.494 3.193 2.494-2.994c.5-.699.799-1.197.799-1.297 0-.498-.498-.898-1.496-.898h-.2V.468h5.688v.598h-.2c-.798 0-1.497.2-1.996.699L67.778 3.96l-2.396 2.794 3.692 4.69 2.195 2.494 1.796.498v.799zm18.757-.799c-.5 0-.998-.199-1.097-.498l-.998-1.996L84.739.07h-.699l-4.689 11.474-1.098 2.196c-.398.299-.898.498-1.396.698h-.1v.798h4.59v-.797h-.1c-.998 0-1.496-.4-1.496-1.198l.598-2.195.4-.799h5.288l.998 2.196.3 1.297c0 .498-.5.698-1.498.698h-.099v.798h6.285v-.797h-.2v-.002zm-6.086-4.988h-4.69l2.295-5.687 2.395 5.687zm26.541-8.381c-.799.2-1.495.498-1.796.998l-.199 1.396v12.074h-.598L99.307 2.563v9.18c0 .998 0 1.497.198 1.697.5.598 1.199.998 1.997.998h.299v.797h-5.588v-.797h.1c.998 0 1.696-.4 1.995-.998l.199-1.697V3.96c0-1.397-.199-2.195-.7-2.494l-1.296-.4h-.199V.468h4.49l8.68 10.576V3.46c0-.997-.199-1.695-.498-1.896l-1.696-.498h-.1V.468h5.288v.598h-.198zm17.661.498c-1.698-.797-3.992-1.297-7.183-1.297h-2.995l-2.096.2v.598h.301c.797 0 1.297.2 1.696.498l.099 2.395v7.583l-.099 2.395a2.457 2.457 0 01-1.497.498h-.5v.798h5.988l4.988-.498c3.094-.998 4.591-3.293 4.591-6.785-.001-2.992-1.099-5.187-3.293-6.385zm-2.495.2c1.796.998 2.694 3.192 2.694 6.285 0 2.395-.5 4.191-1.696 5.388-.799.599-2.196.998-3.991.998-.798 0-1.299-.199-1.497-.498-.198-.498-.299-1.397-.299-2.893V1.067l1.297-.1c1.497 0 2.693.3 3.492.798zm24.445 8.78l-.198 4.69h-12.773v-.797h.299c.9 0 1.397-.2 1.498-.499.198-.4.4-1.197.4-2.395V3.762c0-1.198-.201-1.796-.4-2.196-.101-.299-.598-.498-1.297-.498h-.201V.47h11.375l.101 3.592h-.598c-.201-.799-.5-1.498-.899-1.996-.498-.6-1.596-.998-3.094-.998h-2.194v5.887h1.495c.799 0 1.299-.2 1.498-.4.299-.099.499-.598.499-1.495v-.101h.797v4.988h-.797v-.199c0-.798-.2-1.297-.301-1.696l-1.696-.299h-1.495v3.692c0 1.297.198 2.095.299 2.494.198.3.897.498 1.895.498h.799c1.497 0 2.495-.4 2.992-1.197.5-.798.998-1.696 1.299-2.694h.697zm21.252 4.69v-.797c-1.097 0-2.493-.998-3.99-2.994-1.297-1.996-2.294-3.193-3.094-3.692 2.593-.498 3.991-1.696 3.991-3.691 0-1.298-.699-2.295-1.995-2.994-.998-.598-2.694-.998-4.988-.998l-5.689.4v.598h.201c.798 0 1.495.2 1.596.4l.399 2.294v7.782l-.399 2.395c-.101.3-.599.498-1.498.498h-.497v.798h7.483v-.798h-.599c-.899 0-1.396-.199-1.497-.498-.198-.4-.4-1.197-.4-2.395V8.251h.201c.796 0 1.297.199 1.695.299l2.096 2.894c1.196 1.995 2.194 3.292 2.892 3.791h4.092zm-6.284-11.174c0 1.994-.699 2.992-2.196 3.192l-2.496.2V1.065h.998c1.397 0 2.397.2 2.894.699.501.5.8 1.197.8 2.296zM21.68 23.917l-8.182 18.06H12.7l-8.481-18.06V35.89c0 1.794.2 2.993.699 3.59.299.999 1.097 1.498 2.494 1.498h.1v.998H.03v-.998h.2c1.196 0 1.995-.5 2.494-1.497.3-.598.499-1.995.499-3.791v-9.778c0-1.897-.2-2.894-.499-3.394-.3-.498-.997-.599-2.195-.599H.03v-.998h7.184l7.283 16.265 7.384-16.265h7.084v.998h-.599c-1.197 0-1.996.3-2.395.799-.3.498-.498 1.497-.498 3.193v11.073c0 1.698.2 2.895.698 3.393.2.5.798.6 1.996.6h.798v.998H18.487v-.998h.498c1.197 0 1.896-.1 2.195-.6.3-.497.499-1.694.499-3.393V23.917zM37.146 31.4c0 4.29 1.696 7.483 5.188 9.479 1.796 1.097 3.79 1.596 6.086 1.596l1.197-.1-4.69 2.594c-1.097.5-1.595.998-1.595 1.497 0 .498.299.699.798.699l1.297-.699c.898-.798 1.896-1.299 2.894-1.299 1.497 0 3.293.701 5.289 2.196l2.195 1.498c1.497.796 2.793 1.095 4.29 1.095 3.692 0 5.688-1.794 6.188-5.287h-.998c-.499 1.497-1.696 2.196-3.492 2.196-1.397 0-2.994-.4-4.99-1.198-2.993-1.197-5.486-1.696-7.482-1.696l-.5.198 3.792-2.194c2.495-.799 4.29-2.095 5.687-3.993 1.497-1.794 2.096-3.99 2.096-6.483 0-3.096-1.098-5.79-3.293-7.984-2.195-1.996-4.79-2.995-8.282-2.995-3.491 0-6.386.998-8.481 2.995-2.197 1.997-3.194 4.69-3.194 7.885zm11.473-9.68c1.697 0 3.193.5 4.49 1.497 1.797 1.497 2.694 4.19 2.694 8.284 0 2.693-.498 4.887-1.397 6.483l-1.097 1.498c-1.198 1.198-2.694 1.897-4.49 1.897-2.395 0-3.991-.9-5.188-2.395-1.297-1.996-1.996-4.59-1.996-7.784 0-2.693.5-4.789 1.497-6.485 1.198-1.996 2.993-2.995 5.487-2.995zm22.65 4.192c0-1.897-.2-2.894-.498-3.394-.4-.498-1.198-.599-2.395-.599h-.3v-.998h10.178v.998h-.398c-1.098 0-1.996.1-2.295.6-.3.499-.5 1.496-.5 3.393v7.084c0 2.894.3 4.89.798 5.688.898 1.496 2.494 2.294 4.988 2.294 1.397 0 2.496-.299 3.693-.998 1.198-.6 1.796-1.497 2.294-2.595.2-.698.4-2.194.4-4.39v-7.283c0-1.297-.199-2.294-.7-2.795-.298-.497-1.196-.897-2.293-.997h-.2v-.998h7.484v.998h-.299l-1.695.6c-.799.498-1.199 1.397-1.199 2.694v9.18c0 2.794-.798 4.789-2.294 6.086-1.497 1.396-3.692 1.995-6.286 1.995-3.193 0-5.688-.998-7.184-2.993-1.197-1.297-1.497-2.993-1.298-4.989v-8.581h-.001zm39.514 1.495h.998v7.086h-.998v-.1c0-1.199-.101-1.995-.601-2.395-.399-.299-1.196-.497-2.394-.497h-2.096v4.988c0 1.995.101 3.193.5 3.692.299.5 1.097.798 2.593.798h1.198c1.995 0 3.492-.6 4.29-1.796.899-.998 1.396-2.294 1.897-3.791h.998l-.4 6.585H98.709v-.998h.498c1.097 0 1.796-.1 2.095-.6.4-.497.499-1.694.499-3.392V25.912c0-1.696-.1-2.894-.499-3.394-.299-.498-.998-.599-2.096-.599h-.198v-.998h16.165l.299 5.289h-.998a10.37 10.37 0 00-1.297-2.994 4.402 4.402 0 00-1.497-.998l-2.694-.2h-3.294v8.383h2.096c1.198 0 1.995-.2 2.394-.5.5-.497.601-1.196.601-2.394v-.1zm28.434-4.19l-1.296-.998-2.795-.2h-3.392v8.383h2.196c1.196 0 1.796-.2 2.294-.5.4-.497.499-1.196.499-2.394v-.1h1.196v7.085h-1.196v-.1c0-1.199-.101-1.995-.499-2.395-.299-.299-1.098-.497-2.294-.497h-2.196v4.988c0 1.995.2 3.193.499 3.692.4.5 1.196.798 2.694.798h1.196c1.997 0 3.492-.6 4.292-1.796.798-.998 1.297-2.294 1.796-3.791h.998l-.299 6.585h-18.16v-.998h.498c1.198 0 1.897-.1 2.196-.6.299-.497.497-1.694.497-3.392V25.912c0-1.696-.198-2.894-.497-3.394-.299-.498-.998-.599-1.995-.599h-.299v-.998h16.064l.398 5.289h-.998a13.96 13.96 0 00-1.397-2.993zm31.432 2.195v17.063h-1.097l-14.469-18.46v13.172c0 1.297.101 2.194.299 2.495.5.797 1.498 1.297 2.795 1.297h.4v.998h-7.883v-.998c1.497-.1 2.495-.5 2.894-1.297.099-.3.299-1.198.299-2.495V26.011c0-1.995-.299-3.094-.798-3.591l-2.197-.5h-.198v-.998h6.684l12.173 15.267V25.213c0-1.297-.4-2.196-.9-2.695-.497-.498-1.297-.599-2.093-.599h-.4v-.998h7.682v.998h-.299c-1.196.1-1.995.5-2.495 1.297-.199.5-.397 1.198-.397 2.196z" fill="#000"/><path fill-rule="evenodd" clip-rule="evenodd" d="M49.119 27.407c-1.797 0-2.695 1.3-2.695 3.791 0 2.795.998 4.191 2.893 4.191 1.297 0 2.096-.698 2.594-1.994l.698.299c-.499 1.695-1.797 2.495-3.791 2.495-1.497 0-2.694-.5-3.492-1.297-.898-.9-1.396-1.997-1.396-3.392 0-1.498.498-2.595 1.496-3.493.998-.998 2.195-1.497 3.693-1.497.797 0 1.695.198 2.294.699.499.299.898.798.898 1.297a.893.893 0 01-.898.9c-.499 0-.998-.4-1.097-1.2-.2-.498-.5-.799-1.197-.799z" fill="#000"/></svg>