<svg width="126" height="50" fill="none" xmlns="http://www.w3.org/2000/svg"><path fill-rule="evenodd" clip-rule="evenodd" d="M5.453 1.507l-2.366-.122-.975-.195-.195-.366c0-.341.244-.487.732-.487h24.46c11.462 0 19.509 3.487 24.191 10.486 2.683 4.048 4.024 8.852 4.024 14.412 0 2.902-.439 5.707-1.342 8.413-1.023 2.854-2.438 5.366-4.267 7.61-2 2.364-4.438 4.194-7.243 5.535-3 1.366-6.365 2.073-10.145 2.073H1.137c-.512 0-.756-.17-.756-.463 0-.317.366-.487 1.048-.487l5.975-.365c.927-.123 1.586-.392 1.903-.757l.61-.854c.22-.585.341-1.462.365-2.657V4.605c0-1.512-.853-2.44-2.511-2.805l-2.318-.293zm13.169.659l-.171.975v42.945c0 .488.098.828.293.95l.975.147h3.219l7.462-.268c2-.22 3.706-.536 5.048-.976a13.72 13.72 0 003.706-2.047c.976-.805 1.976-1.952 3.073-3.415 1.829-2.39 3.146-5.438 3.95-9.169.488-2.437.733-4.803.733-7.071 0-2-.293-4.146-.903-6.463-.853-3.34-2.146-6.267-3.975-8.755-3.536-4.828-9.34-7.218-17.363-7.218h-4.95c-.56-.05-.927.072-1.097.365zM60.127 48.5c-.048-.293.195-.415.732-.415l1.707-.049c.927-.122 1.488-.438 1.707-.926l.317-1.756V31.185c0-.536-.195-.95-.56-1.194l-1.269-.123-1.707.464-.927-.05c-.122-.292.244-.56 1.097-.804 2.025-.537 3.806-1.22 5.317-2.073a16.39 16.39 0 011.877-.951l.732-.073c.244.048.367.536.367 1.414v17.85c0 .853.194 1.463.56 1.829.439.44 1.464.658 3.049.658.56 0 .852.123.902.39 0 .22-.17.293-.464.293H60.566c-.292.002-.439-.12-.439-.315zm57.552-17.558c-1.195 1.244-2 2.706-2.439 4.462v10.365c0 .926.317 1.584.976 2l1.488.266 1.56.171c.367.05.513.123.513.317l-.073.171-.415.123h-13.046c-.39 0-.609-.123-.609-.317l.365-.293 2.195-.171c.853-.146 1.39-.438 1.683-.878l.366-1.097V31.43l-.245-1.073-.413-.244c-.123-.122-.317-.195-.61-.244-.366-.023-.805.05-1.268.244l-1.243.342-.708-.171c-.122-.171-.073-.293.097-.366l1.049-.439c2.389-.707 4.316-1.438 5.658-2.194l1.657-.903.732.048.293.61v5.365c1.83-2.975 3.292-4.803 4.293-5.414.609-.365 1.194-.658 1.634-.78l.852-.072c.537-.05 1.147.121 1.829.56.928.537 1.415 1.342 1.463 2.365.049.854-.196 1.514-.732 2.024-.487.415-.976.538-1.414.415-.414-.073-.731-.244-.951-.487l-.683-.853c-.536-.782-1.048-1.025-1.657-.805-.71.193-1.441.73-2.197 1.584zM66.712 10.896c-.903 0-1.634.317-2.243.927a2.809 2.809 0 00-.928 2.293c-.048.853.269 1.585.928 2.195.609.61 1.34.926 2.243.926a3.06 3.06 0 002.218-.926c.61-.61.951-1.341.951-2.195 0-.903-.342-1.683-.95-2.293a3.058 3.058 0 00-2.22-.927zm12.925 19.46a11.2 11.2 0 013.292-2.926c1.171-.683 2.341-1.122 3.56-1.342l4.512-.267c1.633.073 3.146.39 4.512.999 3.292 1.463 5.364 4.146 6.144 8.047.805 3.951.123 7.293-2.024 10-1.828 2.291-4.243 3.755-7.29 4.388-3.195.708-6.17.488-8.853-.609-3.488-1.415-5.608-4.219-6.292-8.316-.61-3.876.195-7.17 2.439-9.974zm14.29-1.097c-1.488-1.657-3.366-2.39-5.634-2.195-2.194.22-3.877 1.439-4.975 3.755-.999 2.098-1.365 4.66-.999 7.683.267 3 1.22 5.389 2.755 7.218 1.634 1.927 3.488 2.731 5.56 2.366 2.17-.415 3.756-1.586 4.805-3.536 1.024-2 1.389-4.584 1.145-7.877-.292-3.292-1.145-5.732-2.658-7.414zm-33.97 1.073v.244l-.538-.342v.122l.05.22h-.074v-.464h.024l.488.367v-.367h.098l-.049.22z" fill="#000"/><path fill-rule="evenodd" clip-rule="evenodd" d="M60.858 30.162h-.292v.17h.244v.024h-.244v.17h.292v.051h-.365v-.465h.365v.05zm1.342-.05h.025l-.244.464h-.073l-.195-.366-.22.366h-.025c-.122-.22-.219-.366-.244-.464h.123l.146.367.22-.367h.072l.171.367.195-.367h.05zm.683.244l.048.221h-.121v-.171l-.244-.294h.122l.195.244.195-.244h.098l-.293.244zm.683-.146a.466.466 0 01.292-.097c.123 0 .196.05.293.097.024.025.073.073.073.147l-.073.17c-.097.05-.17.05-.293.05-.121 0-.243 0-.292-.05l-.123-.17c0-.074.05-.122.123-.147zm.488 0l-.196-.048-.194.048c-.05.025-.098.073-.098.147 0 .049.048.097.098.123l.194.097c.073 0 .171-.05.196-.098.048-.024.097-.072.097-.122 0-.074-.049-.122-.097-.147zm.731-.048l-.025.17h.073c.122 0 .196-.049.196-.097 0-.025-.025-.073-.148-.073h-.096zm.122-.05c.123 0 .219.05.219.123l-.097.098-.123.023.293.22h-.123l-.292-.22h-.024l.025.22h-.123v-.464h.245zm1.22 0l-.317.22.316.245h-.12l-.27-.221v-.024l-.05.024.05.221h-.122v-.465h.122l-.05.22h.05l.317-.22h.073z" fill="#000"/></svg>