<svg width="190" height="50" fill="none" xmlns="http://www.w3.org/2000/svg"><path fill-rule="evenodd" clip-rule="evenodd" d="M182.262.093v1.469h2.938v17.164l-8.657-13.917-2.938-4.717h-10.747V1.56h2.861v26.75h-2.861v2.166h7.035v-2.165h-1.932V5.89l8.582 14.381 6.185 10.206h4.637V1.562h2.011V.092h-7.114zm2.938 28.22h-1.545l-7.112-12.061-8.582-14.69h3.092l5.49 8.736 8.657 13.53v4.485zm-109.941 0h-5.335V1.562h2.088V.092H58.945v1.47h2.861v26.75h-2.86v2.166h23.503V20.349h-2.087c0 5.257-1.005 7.964-5.103 7.964zm-9.51 0h-2.474V1.562h2.474v26.75zM146.39.093v1.469h2.783v26.75h-2.783L135.797.093h-8.041l-9.509 28.22h-4.484V1.563h2.706V.092h-10.901l-5.722 12.835L93.43.093H83.38v1.469h1.855v26.75h-1.856v2.166h6.417v-2.165h-2.32V6.123l5.413 10.515 4.484 8.814 8.195-19.715v22.576h-1.855v2.165h19.56v-2.165H120.8l3.014-9.665h7.191l2.087.078 3.324 9.587h-2.783v2.165h26.595v-2.165h-2.86V1.562h2.86V.092H146.39zM96.598 20.195l-3.711-7.577-5.412-11.056h2.783l2.629 4.87 5.412 9.897-1.701 3.866zm13.685 8.118h-2.474V1.562h2.474v26.75zm20.721-11.752h-6.881l4.098-12.757 2.783 7.886 1.701 4.87h-1.701zm23.039-15v26.752h-2.474V1.562h2.474zm-15.464 26.752L131.003 6.51l-1.701-4.948h3.48l9.664 26.75h-3.867zM46.189.093H38.92l-9.278 28.22H27.09v2.165h7.036v-2.165H31.42l2.938-9.278h9.974l3.015 9.278h-3.015v2.165h13.84v-2.165h-1.625L46.188.093zm2.705 28.22L40.08 1.562h3.325l9.278 26.75h-3.789zm-14.226-10.67l4.562-13.84 4.562 13.84h-9.124zM22.994 14.86c2.86-1.933 3.401-4.252 3.401-6.881 0-2.629-2.087-7.886-6.494-7.886H.648v1.469h2.938v26.75H.65v2.166h19.252c3.402 0 7.19-3.402 7.19-7.887 0-4.406-1.392-5.798-4.098-7.731zM11.628 1.562h4.64c.618 0 1.082.85 1.468 1.933.541 1.469.773 3.401.773 4.484 0 .773-.309 1.855-.773 2.938-.618 1.546-1.623 2.938-2.629 2.86h-3.479V1.563zm-3.17 26.75H5.984V1.563h2.474v26.75zm9.278-1.236c-.309.774-.85 1.237-1.469 1.237h-4.639v-12.37h3.248c1.082 0 2.164 1.468 2.86 3.17.541 1.236.85 2.55.85 3.479 0 1.546-.231 3.324-.85 4.484l.85 1.237c1.392-1.701 1.547-3.015 1.547-5.721 0-2.243-1.005-4.871-2.397-6.727-.22-.363-.479-.7-.773-1.005.232-.387.541-.696.773-1.005 1.392-1.778 2.397-3.866 2.397-5.876 0-2.397-.928-4.33-1.546-6.417 2.783.85 4.87 3.092 4.87 6.417 0 3.247-2.55 4.948-5.643 6.881 3.479 1.933 5.644 3.943 5.644 7.732 0 3.788-1.701 5.026-4.871 5.72l-.85-1.236zm55.203 13.53a3.75 3.75 0 00-1.623-.619c-.232 0-.541-.077-.85-.077h-1.624v9.665h.927v-4.253h.85c.233 0 .465 0 .697-.076.618-.077 1.16-.233 1.623-.542.542-.386.85-1.083.85-2.087 0-1.006-.308-1.625-.85-2.011zm-.54 3.48c-.233.154-.62.307-1.083.385h-1.547V40.76h.774c.309 0 .54 0 .773.077 1.082.154 1.546.773 1.546 1.778 0 .697-.154 1.16-.464 1.47zm48.863.618a1.69 1.69 0 00-.619-.386c-.31-.155-.619-.386-1.16-.618-.696-.465-1.082-1.007-1.082-1.624 0-.542.156-.928.464-1.16.308-.232.618-.386 1.082-.386.619 0 1.083.309 1.468.85l.619-.464c-.309-.54-.619-.85-.927-1.006-.386-.154-.696-.154-1.16-.154-.696 0-1.315.154-1.701.618-.464.464-.696 1.005-.696 1.701 0 .464.078.773.311 1.082.308.386.618.695.926 1.006.311.155.696.386 1.316.773.541.31.849.542 1.005.618.385.387.541.85.541 1.546 0 .619-.156 1.16-.541 1.547-.308.308-.774.464-1.315.464-1.006 0-1.546-.464-1.932-1.47l-.696.387c.308.773.696 1.236 1.16 1.468.464.233.926.387 1.468.387.618 0 1.159-.155 1.623-.464.388-.232.619-.619.852-1.006.155-.464.233-.927.233-1.392-.001-.927-.39-1.699-1.239-2.317zm-36.493-4.872l-4.02 9.742h.85l1.237-3.247H86.7l1.16 3.247h.928L84.846 39.6l-.077.232zm0 5.8h-1.624l1.624-4.175v-.078l1.623 4.253H84.77zm24.354 3.943h.927V39.91h-.927v9.665zm-10.824-4.562h.077c.541-.077 1.16-.232 1.624-.618.464-.386.696-1.006.696-1.778 0-1.624-.775-2.475-2.32-2.628-.233 0-.385-.078-.618-.078h-1.701v9.665h.851v-4.562h.464l1.005 1.392 2.242 3.17h1.083l-3.325-4.485-.078-.078zm-1.39-.696v-3.556h1.467c.386.077.696.155.927.386.388.232.541.773.541 1.392 0 .773-.23 1.237-.616 1.469-.233.077-.544.154-.852.232-.233 0-.541.077-.85.077h-.618z" fill="#000"/></svg>