<svg width="18" height="19" fill="none" xmlns="http://www.w3.org/2000/svg"><path d="M13.28 9.72a.75.75 0 00-1.06 0l-1.196 1.195c-.554-.165-1.588-.54-2.244-1.195-.655-.656-1.03-1.69-1.195-2.244L8.78 6.28a.75.75 0 000-1.06l-3-3a.75.75 0 00-1.06 0L2.686 4.254a1.499 1.499 0 00-.44 1.076c.018 1.068.3 4.777 3.224 7.7 2.923 2.924 6.633 3.206 7.702 3.224h.02c.396 0 .77-.156 1.054-.44l2.034-2.033a.75.75 0 000-1.06l-3-3.001zm-.095 5.034c-.936-.016-4.138-.267-6.655-2.784-2.524-2.525-2.769-5.74-2.784-6.656L5.25 3.81l1.94 1.94-.97.97a.75.75 0 00-.204.684c.018.086.458 2.131 1.703 3.376s3.29 1.685 3.376 1.703a.743.743 0 00.684-.203l.971-.97 1.94 1.94-1.505 1.504z" fill="#fff"/></svg>