<svg width="18" height="19" viewBox="0 0 18 19" fill="none" xmlns="http://www.w3.org/2000/svg">
<g clip-path="url(#clip0)">
<path d="M17.9825 5.79205C17.9403 4.83564 17.7857 4.17812 17.5641 3.60836C17.3356 3.00359 16.9839 2.46213 16.5232 2.01201C16.0731 1.55489 15.5281 1.19969 14.9303 0.974702C14.3573 0.753147 13.7032 0.598484 12.7468 0.556316C11.7832 0.510576 11.4773 0.5 9.03349 0.5C6.58966 0.5 6.28376 0.510576 5.32378 0.552745C4.36738 0.594913 3.70985 0.749713 3.14024 0.971131C2.53532 1.19969 1.99387 1.55132 1.54375 2.01201C1.08663 2.46213 0.731566 3.00716 0.50644 3.60493C0.284885 4.17812 0.130222 4.83207 0.0880542 5.78848C0.0423147 6.75203 0.0317383 7.05792 0.0317383 9.50176C0.0317383 11.9456 0.0423147 12.2515 0.0844829 13.2115C0.126651 14.1679 0.281451 14.8254 0.503006 15.3952C0.731566 15.9999 1.08663 16.5414 1.54375 16.9915C1.99387 17.4486 2.53889 17.8038 3.13667 18.0288C3.70985 18.2504 4.3638 18.405 5.32035 18.4472C6.28019 18.4895 6.58622 18.4999 9.03006 18.4999C11.4739 18.4999 11.7798 18.4895 12.7398 18.4472C13.6962 18.405 14.3537 18.2504 14.9233 18.0288C16.133 17.5611 17.0894 16.6047 17.5571 15.3952C17.7785 14.822 17.9333 14.1679 17.9755 13.2115C18.0177 12.2515 18.0282 11.9456 18.0282 9.50176C18.0282 7.05792 18.0247 6.75203 17.9825 5.79205ZM16.3616 13.1411C16.3228 14.0202 16.1752 14.4949 16.0521 14.8114C15.7496 15.5956 15.1273 16.2179 14.3431 16.5204C14.0266 16.6434 13.5485 16.7911 12.6729 16.8297C11.7235 16.872 11.4387 16.8824 9.03706 16.8824C6.63539 16.8824 6.34708 16.872 5.40111 16.8297C4.52204 16.7911 4.04734 16.6434 3.73087 16.5204C3.34064 16.3761 2.98544 16.1476 2.69713 15.8487C2.39824 15.5568 2.16968 15.2052 2.02546 14.815C1.90239 14.4985 1.75473 14.0202 1.71613 13.1447C1.67383 12.1953 1.66339 11.9104 1.66339 9.50876C1.66339 7.1071 1.67383 6.81879 1.71613 5.87295C1.75473 4.99387 1.90239 4.51917 2.02546 4.2027C2.16968 3.81234 2.39824 3.45727 2.7007 3.16883C2.99244 2.86994 3.34407 2.64138 3.73444 2.49729C4.05091 2.37422 4.52918 2.22656 5.40469 2.18783C6.35409 2.14566 6.63897 2.13509 9.04049 2.13509C11.4457 2.13509 11.7305 2.14566 12.6764 2.18783C13.5555 2.22656 14.0302 2.37422 14.3467 2.49729C14.7369 2.64138 15.0921 2.86994 15.3804 3.16883C15.6793 3.46071 15.9079 3.81234 16.0521 4.2027C16.1752 4.51917 16.3228 4.99731 16.3616 5.87295C16.4037 6.82236 16.4143 7.1071 16.4143 9.50876C16.4143 11.9104 16.4037 12.1917 16.3616 13.1411Z" fill="white"/>
<path d="M9.03361 4.87793C6.48086 4.87793 4.40967 6.94898 4.40967 9.50188C4.40967 12.0548 6.48086 14.1258 9.03361 14.1258C11.5865 14.1258 13.6576 12.0548 13.6576 9.50188C13.6576 6.94898 11.5865 4.87793 9.03361 4.87793ZM9.03361 12.5013C7.37751 12.5013 6.03417 11.1581 6.03417 9.50188C6.03417 7.84564 7.37751 6.50244 9.03361 6.50244C10.6898 6.50244 12.0331 7.84564 12.0331 9.50188C12.0331 11.1581 10.6898 12.5013 9.03361 12.5013Z" fill="white"/>
<path d="M14.9198 4.6952C14.9198 5.29133 14.4365 5.77469 13.8402 5.77469C13.2441 5.77469 12.7607 5.29133 12.7607 4.6952C12.7607 4.09894 13.2441 3.61572 13.8402 3.61572C14.4365 3.61572 14.9198 4.09894 14.9198 4.6952Z" fill="white"/>
</g>
<defs>
<clipPath id="clip0">
<rect width="18" height="18" fill="white" transform="translate(0 0.5)"/>
</clipPath>
</defs>
</svg>
