<svg width="141" height="50" viewBox="0 0 141 50" fill="none" xmlns="http://www.w3.org/2000/svg">
<path fill-rule="evenodd" clip-rule="evenodd" d="M63.9835 2.00763H56.6585V24.2876C56.6585 28.5605 55.4378 32.6308 49.8426 32.6308C44.1449 32.6308 42.6193 28.5605 42.6193 24.2876V2.00763L35.3959 2.00763V24.695C35.3959 31.9176 39.7704 37.8178 49.8426 37.8178C59.8123 37.8178 63.9835 31.9168 63.9835 24.695V2.00763ZM0.805664 36.9028H8.02901V20.7272H22.374V36.9028H29.4949V2.00763L22.374 2.00763V15.4369H8.02901V2.00763H0.805664L0.805664 36.9028ZM100.404 10.9608C97.7597 4.14485 92.5711 0.482748 85.4494 0.482748C74.869 0.482748 67.8489 8.21439 67.8489 19.2015C67.8489 31.1051 74.0541 37.8186 84.9403 37.8186C87.4842 37.8186 92.3678 36.5979 94.7068 33.9531V37.0061H100.71V17.8791H85.6528V23.0677H94.0976C94.0976 28.2555 90.333 33.0382 85.4494 33.0382C78.1244 33.0382 75.4797 25.8141 75.4797 19.2023C75.4797 12.9971 78.4302 5.36634 85.4494 5.36634C91.248 5.36634 93.4861 10.6566 94.1985 13.5054L100.404 10.9608ZM3.45038 49.7222L3.45038 46.2626H6.70665V49.7222H8.43564V41.8889H6.70665V45.0419H3.45038V41.8889H1.82305V49.7222H3.45038ZM23.289 41.8889V46.161C23.289 47.4841 23.289 48.6024 21.5592 48.6024C19.931 48.6024 19.931 47.4841 19.931 46.161V41.8889H18.2021V46.7717C18.2021 48.8065 19.7277 49.8246 21.5592 49.8246C23.4923 49.8246 25.018 48.8073 25.018 46.7717V41.8889H23.289ZM40.0754 46.8742V48.399C39.6688 48.5015 39.2621 48.6024 38.5497 48.6024C36.9216 48.6024 36.3116 47.5866 36.3116 45.8568C36.3116 44.0245 36.9224 43.0071 38.4481 43.0071C39.3638 43.0071 39.9745 43.6187 39.9745 44.3303H41.7035C41.7035 42.8038 40.3812 41.7864 38.3464 41.7864C36.7191 41.7864 34.4802 42.7014 34.4802 45.8568C34.4802 48.9081 36.6166 49.8246 38.4481 49.8246C40.0754 49.8246 41.0936 49.5189 41.7035 49.2131V45.551H38.5497V46.8742H40.0754ZM118.412 44.127C118.412 42.4981 116.886 41.6856 115.462 41.6856C114.036 41.6856 112.409 42.4981 112.409 44.127C112.409 45.2452 113.223 45.8568 114.342 46.161C114.648 46.2634 115.259 46.3659 115.563 46.4667C116.58 46.7725 116.987 47.0783 116.987 47.6874C116.987 48.6024 116.174 48.8073 115.665 48.8073C114.444 48.8073 113.935 48.0957 113.935 47.2808H112.308C112.308 48.9081 113.529 49.9255 115.665 49.9255C117.293 49.9255 118.819 49.0106 118.819 47.4841C118.819 46.2634 117.904 45.551 116.683 45.246C116.275 45.1452 115.869 45.0427 115.463 44.8394C114.546 44.6361 114.139 44.3303 114.139 43.7196C114.139 43.212 114.546 42.7022 115.463 42.7022C116.378 42.7022 116.784 43.3137 116.784 44.1278H118.412V44.127ZM135.097 44.127C135.097 42.4981 133.468 41.6856 132.044 41.6856C130.62 41.6856 128.993 42.4981 128.993 44.127C128.993 45.2452 129.805 45.8568 130.926 46.161C131.23 46.2634 131.841 46.3659 132.147 46.4667C133.265 46.7725 133.571 47.0783 133.571 47.6874C133.571 48.6024 132.757 48.8073 132.247 48.8073C131.027 48.8073 130.518 48.0957 130.518 47.2808H128.89C128.89 48.9081 130.111 49.9255 132.247 49.9255C133.876 49.9255 135.401 49.0106 135.401 47.4841C135.401 46.2634 134.486 45.551 133.266 45.246C132.859 45.1452 132.452 45.0427 132.045 44.8394C131.13 44.6361 130.722 44.3303 130.722 43.7196C130.722 43.212 131.13 42.7022 132.045 42.7022C132.96 42.7022 133.368 43.3137 133.368 44.1278H135.097V44.127ZM55.1328 49.9255C57.7776 49.9255 58.9983 48.0949 58.9983 45.8568C58.9983 43.5162 57.7776 41.6856 55.1328 41.6856C52.4873 41.6856 51.2666 43.5162 51.2666 45.8568C51.2666 48.0949 52.4873 49.9255 55.1328 49.9255ZM55.1328 42.9063C56.8618 42.9063 57.1676 44.4328 57.1676 45.8568C57.1676 47.1783 56.8626 48.7048 55.1328 48.7048C53.403 48.7048 53.0981 47.1783 53.0981 45.8568C53.0973 44.4328 53.403 42.9063 55.1328 42.9063ZM81.7873 49.7222C83.4147 49.7222 84.8387 49.0106 84.8387 47.5866C84.8387 46.3659 83.9238 45.6519 83.008 45.6519C83.6196 45.551 84.4321 44.8394 84.4321 43.9237C84.4321 42.4981 83.4147 41.8889 81.7873 41.8889H78.3285V49.7222H81.7873ZM80.0575 48.5015V46.2634H81.584C82.2956 46.2634 82.9056 46.4667 82.9056 47.3832C82.9056 48.2982 82.2956 48.5015 81.584 48.5015H80.0575ZM80.0575 45.1444V43.1096H81.584C82.2956 43.1096 82.7023 43.5162 82.7023 44.127C82.7023 44.7369 82.0923 45.1444 81.4816 45.1444H80.0575ZM98.4721 49.9255C101.219 49.9255 102.44 48.1957 102.44 45.7543C102.44 43.4154 101.219 41.6856 98.4721 41.6856C95.8274 41.6856 94.6067 43.4154 94.6067 45.7543C94.6059 48.1957 95.8266 49.9255 98.4721 49.9255ZM98.4721 42.9063C100.202 42.9063 100.608 44.4328 100.608 45.7543C100.608 47.1783 100.201 48.7048 98.4721 48.7048C96.7431 48.7048 96.4373 47.1783 96.4373 45.7543C96.4365 44.4328 96.7423 42.9063 98.4721 42.9063ZM122.38 0.0753174C111.595 0.0753174 104.473 8.21439 104.473 19.2015C104.473 30.2903 111.595 38.3277 122.38 38.3277C133.265 38.3277 140.387 30.291 140.387 19.2015C140.387 8.21439 133.265 0.0753174 122.38 0.0753174ZM122.38 4.85646C129.603 4.85646 132.656 12.8939 132.656 19.2015C132.656 25.5099 129.603 33.4441 122.38 33.4441C115.259 33.4441 112.206 25.5099 112.206 19.2015C112.206 12.8939 115.259 4.85646 122.38 4.85646Z" fill="black"/>
</svg>
