<svg width="104" height="50" viewBox="0 0 104 50" fill="none" xmlns="http://www.w3.org/2000/svg">
<path fill-rule="evenodd" clip-rule="evenodd" d="M0.925781 1.57215L11.8751 1.57215C14.497 1.57215 17.0704 1.76646 19.6196 2.17931C22.1446 2.56794 24.5237 3.68428 26.7569 5.481C28.8449 7.2535 30.4715 9.51096 31.6368 12.2545C32.8264 14.9975 33.482 17.8136 33.5789 20.7273C33.6273 20.9216 33.6515 21.1401 33.6515 21.3586V22.4265C33.5789 25.4618 32.9475 28.3743 31.7579 31.2147C30.5926 34.0315 28.8685 36.3379 26.5863 38.1578C24.5716 39.6391 22.4347 40.5864 20.1288 41.0229C17.8466 41.4842 15.4917 41.727 13.1125 41.8239H0.925781L0.925781 1.57215ZM8.93781 34.5649C9.20479 34.5649 9.49599 34.5649 9.8114 34.5896C10.1268 34.6144 10.467 34.6144 10.8066 34.6144H11.4623C11.6939 34.6624 11.9298 34.6865 12.1663 34.6865H12.8219C13.2105 34.6865 13.5986 34.6629 13.9872 34.6381C14.3759 34.6381 14.7639 34.5896 15.1768 34.5649C16.3512 34.4632 17.5135 34.252 18.6486 33.934C19.7655 33.5944 20.7607 33.0847 21.5859 32.4054C22.8729 31.3133 23.8439 29.8314 24.4989 27.9868C25.154 26.1422 25.4942 24.2238 25.5189 22.2328V22.0875V21.8447V21.6262V21.4076C25.496 19.4648 25.16 17.5384 24.5237 15.7026C23.8923 13.8574 22.9455 12.3525 21.7075 11.1871C20.8287 10.3484 19.7511 9.74702 18.5759 9.4394C17.4106 9.12399 16.1968 8.95389 14.9346 8.90545C14.6676 8.85701 14.3759 8.83279 14.1089 8.83279H8.93781V34.5649ZM56.2058 41.1694L53.7534 38.2794C52.688 39.2673 51.4659 40.0713 50.1369 40.6585C48.8209 41.2719 47.4076 41.6499 45.961 41.7754C45.817 41.8038 45.6708 41.82 45.524 41.8239H45.0875C44.7715 41.8239 44.4803 41.8002 44.1649 41.7754C43.8495 41.7507 43.5577 41.7022 43.2423 41.6785C42.6236 41.5538 42.0149 41.3834 41.4214 41.1688C40.8203 40.9529 40.2428 40.6762 39.6978 40.3431C38.7026 39.6638 37.9259 38.7649 37.3187 37.6723C36.7116 36.5554 36.3472 35.4142 36.2261 34.2489C36.2018 34.1025 36.2018 33.9577 36.2018 33.8361V33.4716V33.1568C36.2261 33.0351 36.2261 32.914 36.2261 32.7924C36.2261 32.7439 36.2503 32.7192 36.2503 32.6955C36.2745 32.647 36.2745 32.6223 36.2745 32.5491C36.2745 32.5006 36.2987 32.4274 36.2987 32.3311C36.3229 32.2579 36.3229 32.1858 36.3229 32.1362C36.6384 30.4127 37.3666 28.9809 38.5325 27.8398C39.6978 26.6982 40.9848 25.7024 42.3682 24.8046C41.5208 23.9076 40.7945 22.9037 40.2076 21.8183C39.6252 20.7746 39.334 19.6577 39.334 18.5408C39.334 18.3223 39.334 18.1037 39.3824 17.861C39.4067 17.6424 39.4309 17.3997 39.4551 17.2059C39.5035 17.0358 39.5278 16.89 39.5767 16.7446C39.6252 16.5745 39.6736 16.4292 39.6978 16.2833C40.1834 14.7536 41.1302 13.6615 42.5146 12.9574C43.8985 12.2534 45.355 11.889 46.9326 11.889C48.8989 11.889 50.6956 12.4235 52.3222 13.4914C53.9489 14.5351 54.7746 16.1133 54.7746 18.1527V18.6625C54.6529 19.9489 54.1668 21.0658 53.3422 21.9884C52.5241 22.8959 51.6307 23.7324 50.6714 24.4891C50.4529 24.6102 50.2343 24.7319 50.04 24.9014C49.8457 25.0479 49.6514 25.1926 49.4576 25.3143L54.3865 31.0683C54.6529 30.8256 54.8962 30.5823 55.139 30.3395C55.3817 30.0978 55.6003 29.8545 55.8182 29.587C56.328 29.102 56.814 28.5923 57.2984 28.082C57.7845 27.5486 58.2458 27.0383 58.6823 26.5049L61.9603 29.9767C61.5959 30.3648 61.2079 30.7529 60.8434 31.1421C60.4733 31.5327 60.1092 31.9291 59.7513 32.3311C59.3385 32.7192 58.9504 33.1083 58.586 33.4964L57.4939 34.6618L62.8835 41.1683H56.2058V41.1694ZM42.2217 35.1241C42.5377 35.537 42.8531 35.8766 43.1443 36.1436C43.4597 36.4348 43.7751 36.6297 44.1153 36.7992C44.4313 36.9693 44.7225 37.1152 45.0379 37.1873C45.3533 37.2605 45.6451 37.3089 45.9605 37.3089C46.5878 37.307 47.2079 37.1749 47.7814 36.9209C48.3268 36.6624 48.8469 36.3535 49.3349 35.9983C49.7477 35.7071 50.2332 35.2942 50.7429 34.7597L45.2317 28.1811C45.1106 28.2543 44.9889 28.3512 44.843 28.4239C44.7214 28.496 44.6251 28.594 44.5276 28.6655C43.9294 29.1835 43.3771 29.7523 42.8768 30.3654C42.3423 30.9962 41.9784 31.6524 41.7599 32.3316C41.7115 32.5017 41.663 32.6713 41.6382 32.8414C41.5898 33.0115 41.5898 33.2058 41.5898 33.3759C41.5898 33.6918 41.6382 33.9836 41.7599 34.2748C41.8821 34.5649 42.0522 34.8561 42.2217 35.1241ZM46.6403 22.4992C46.6888 22.475 46.713 22.4508 46.7378 22.4265C46.7862 22.4023 46.8104 22.4023 46.8831 22.3539C46.9073 22.3297 46.9557 22.3054 46.9805 22.257C47.0047 22.2328 47.029 22.2328 47.0774 22.2328C47.6846 21.7963 48.2427 21.3344 48.7767 20.8731C49.2864 20.3876 49.626 19.7562 49.7961 19.0037V18.445C49.7961 17.6435 49.5049 16.9885 48.9468 16.503C48.4128 16.0175 47.8057 15.7263 47.1501 15.6288H46.5181C46.0326 15.6773 45.5471 15.8958 45.11 16.2602C44.673 16.6004 44.406 17.1338 44.3575 17.8384C44.3575 17.8626 44.3333 17.9111 44.3333 17.9601C44.3091 18.0085 44.3091 18.0569 44.3091 18.1302C44.3091 18.1544 44.2849 18.1786 44.2849 18.227C44.2607 18.2755 44.2607 18.3239 44.2607 18.3971C44.2607 19.0043 44.4308 19.5867 44.7704 20.0964C45.1106 20.6304 45.4744 21.1401 45.8631 21.6256C46.0332 21.7715 46.1543 21.9168 46.2759 22.0627L46.6403 22.4992ZM103.911 19.9021V21.237C103.911 24.8789 103.304 28.2774 102.09 31.4575C100.876 34.6375 98.5454 37.2115 95.0252 39.1778C93.9083 39.9055 92.6945 40.44 91.3354 40.8528C90 41.2409 88.6645 41.5321 87.3297 41.7022C86.8436 41.727 86.3823 41.7754 85.9458 41.8002C85.4845 41.8002 85.0469 41.8239 84.6104 41.8239H83.8331C83.5667 41.8239 83.3234 41.8002 83.0569 41.7507C79.8037 41.5569 76.6963 40.6585 73.6616 39.0798C70.6511 37.5264 68.1988 35.4148 66.3542 32.7687C65.4316 31.3601 64.7039 29.8303 64.1446 28.2285C63.595 26.6476 63.2209 25.0112 63.0288 23.3486C63.004 23.0332 62.9556 22.6688 62.9308 22.3291C62.9308 21.9647 62.9071 21.6008 62.9071 21.2364C62.9071 17.3766 63.9018 13.7105 65.9176 10.2145C67.9323 6.71845 70.7728 4.07236 74.4383 2.27564C75.2099 1.88927 76.0144 1.57241 76.8422 1.32884C77.6679 1.06186 78.4925 0.843328 79.3666 0.624793C80.1763 0.455943 80.9951 0.334451 81.8189 0.260936C82.6446 0.163503 83.4456 0.139282 84.2228 0.139282H84.8052C87.9605 0.211944 91.0194 0.964981 94.0063 2.3483C96.9683 3.75639 99.5412 5.69844 101.702 8.17499L95.8757 12.4235C94.2727 10.8453 92.5976 9.63152 90.8009 8.75738C89.0111 7.90635 87.0535 7.46679 85.0717 7.47094C84.3984 7.47578 83.7259 7.5162 83.0569 7.59204C82.3392 7.68842 81.6263 7.81811 80.9206 7.98067C77.9338 8.90325 75.7011 10.6273 74.1708 13.1523C72.6658 15.701 71.9128 18.3718 71.9128 21.2364C71.9128 21.4308 71.9128 21.6493 71.9375 21.892C71.9612 22.1106 72.0096 22.3291 72.0344 22.5476C72.0344 22.6687 72.0592 22.7904 72.0829 22.8873C72.1076 22.9842 72.1076 23.1058 72.1076 23.2275C72.1561 23.3244 72.1808 23.4218 72.2045 23.5429C72.2293 23.6645 72.2293 23.7856 72.2293 23.8583C72.7627 26.9899 74.0981 29.467 76.2835 31.239C78.4683 33.0109 80.8226 34.103 83.3718 34.4674C83.7114 34.5643 84.1006 34.6139 84.4887 34.6375C84.8768 34.6623 85.2412 34.6623 85.5808 34.6623C88.0084 34.6623 90.1447 34.0067 92.0626 32.7197C93.9567 31.409 94.903 29.5644 94.903 27.1363L95.0246 26.8688H85.1195V19.9021H103.911ZM28.9423 45.4421H30.4715C31.5399 45.4421 32.4383 46.3883 32.4383 47.5784C32.4383 48.7438 31.5399 49.69 30.4715 49.7148H28.9423V45.4421ZM29.5979 45.9513V49.2045H30.3019C31.2735 49.1797 31.7585 48.4036 31.7585 47.6016C31.7585 46.777 31.273 46.0966 30.4715 45.976L29.5979 45.9513ZM35.0117 45.3441C36.3224 45.3441 37.3666 46.3399 37.3666 47.5784C37.3666 48.817 36.3229 49.8117 35.0117 49.8117C33.7253 49.8117 32.6568 48.817 32.6568 47.5784C32.6568 46.3399 33.7247 45.3441 35.0117 45.3441ZM35.0117 45.8786C35.9585 45.8786 36.7352 46.6311 36.7352 47.5784C36.7352 48.501 35.9585 49.2535 35.0117 49.2535C34.0891 49.2535 33.3124 48.501 33.3124 47.5784C33.3135 47.128 33.4928 46.6963 33.8112 46.3778C34.1297 46.0592 34.5613 45.8798 35.0117 45.8786ZM37.5609 45.4421H38.1923V49.2051H39.4061V49.7148H37.5609V45.4421ZM41.445 45.3204C41.9305 45.3204 42.3918 45.4657 42.7805 45.7085V46.4858C42.6188 46.2879 42.415 46.1286 42.184 46.0195C41.953 45.9103 41.7005 45.8541 41.445 45.8549C40.4982 45.8549 39.7457 46.6311 39.7457 47.5784C39.747 48.0288 39.9265 48.4603 40.2449 48.7788C40.5632 49.0973 40.9947 49.2768 41.445 49.2783C41.979 49.2783 42.4645 49.0355 42.7805 48.6474V49.4484C42.3802 49.6996 41.9176 49.834 41.445 49.8364C40.1586 49.8364 39.0901 48.817 39.0901 47.5784C39.0901 46.3399 40.1586 45.3204 41.445 45.3204ZM43.6304 49.2051H45.1601V49.7148H42.9753V45.4421H45.1601V45.927H43.6304V47.1904H45.1601V47.7001H43.6304V49.2051ZM47.5629 49.423C47.4924 49.4933 47.4103 49.5509 47.3201 49.5931C47.2475 49.6416 47.1501 49.6664 47.0532 49.69C47.029 49.69 47.0047 49.69 46.9805 49.7148H46.9078C46.8352 49.7148 46.7862 49.69 46.7135 49.69C46.6442 49.6677 46.5787 49.6351 46.5192 49.5931C46.4708 49.5447 46.4223 49.4715 46.3739 49.3983L46.3012 49.1803V49.1566V49.1318V49.1082V49.0586H46.3255V49.035V49.0102C46.3497 48.8885 46.3981 48.7922 46.4955 48.6953L46.7867 48.4762L46.6409 48.2583C46.5924 48.2098 46.5682 48.1129 46.5682 48.0403V48.0155V47.9671V47.9434C46.5924 47.9434 46.5924 47.9186 46.5924 47.9186C46.6167 47.8254 46.6673 47.7411 46.7383 47.6759C46.8352 47.6274 46.9084 47.6027 47.0053 47.6027H47.0779C47.1748 47.6027 47.2965 47.6522 47.3934 47.7243C47.4344 47.7657 47.4664 47.8151 47.4873 47.8695C47.5083 47.9239 47.5177 47.9821 47.515 48.0403C47.515 48.1619 47.4908 48.2583 47.4176 48.3315C47.3207 48.4284 47.2475 48.5016 47.1506 48.5495L47.6119 49.1087C47.6361 49.0592 47.6846 49.0107 47.7335 48.9375C47.782 48.8891 47.8062 48.8407 47.8546 48.7922L48.0005 48.9375C47.9763 48.9871 47.9279 49.0355 47.9036 49.084C47.8794 49.1324 47.831 49.1808 47.7825 49.2293L47.7583 49.2541C47.7583 49.2541 47.7583 49.2788 47.7341 49.2788L48.0737 49.6669H47.7825L47.5629 49.423ZM47.0047 49.4963C47.0833 49.4942 47.1594 49.4687 47.2233 49.423C47.2717 49.3746 47.3444 49.3262 47.3934 49.2777H47.4176L47.4418 49.253L46.9078 48.6463C46.9078 48.67 46.9078 48.67 46.8836 48.67L46.8594 48.6948C46.811 48.7185 46.7867 48.7432 46.7383 48.7669C46.6893 48.8164 46.6651 48.8401 46.6409 48.8885C46.6167 48.8885 46.6167 48.9133 46.6167 48.937C46.5924 48.9618 46.5924 48.9865 46.5924 49.0102C46.5682 49.035 46.5682 49.0586 46.5682 49.0586V49.1318C46.5682 49.2287 46.5924 49.3019 46.6651 49.3983C46.7465 49.4662 46.8504 49.5012 46.9563 49.4963H47.0047ZM46.8104 47.9913V48.0397C46.8104 48.0882 46.8104 48.1366 46.8346 48.185C46.8589 48.2346 46.9073 48.283 46.9315 48.3067L46.98 48.3562L47.0042 48.3799H47.0284C47.0284 48.3799 47.0526 48.3799 47.0526 48.3562C47.1011 48.3315 47.1495 48.3067 47.1985 48.2583C47.2448 48.2107 47.2781 48.1522 47.2954 48.0882V48.0645V48.0397C47.2963 48.0078 47.2903 47.976 47.2778 47.9467C47.2652 47.9173 47.2464 47.891 47.2227 47.8696C47.1784 47.8425 47.1285 47.826 47.0768 47.8212H47.0526H47.0284C46.98 47.8212 46.931 47.8212 46.8825 47.8696C46.8603 47.8811 46.8418 47.8987 46.8291 47.9202C46.8163 47.9417 46.8099 47.9663 46.8104 47.9913ZM51.496 45.2957C51.8967 45.2968 52.2912 45.3945 52.6461 45.5805C53.001 45.7665 53.3059 46.0353 53.5349 46.3641L52.9767 46.6553C52.8206 46.4104 52.6053 46.2087 52.3508 46.0687C52.0963 45.9288 51.8107 45.8551 51.5202 45.8544C50.5492 45.8544 49.7967 46.6305 49.7967 47.5779C49.7967 48.5252 50.5492 49.2777 51.5202 49.2777C52.3217 49.2777 52.9525 48.8885 53.0015 48.0639H51.6171V47.5531H53.6808V47.5779C53.6808 48.9133 52.952 49.8596 51.4954 49.8596C50.0389 49.8596 49.1163 48.8401 49.1163 47.5779C49.1163 46.3157 50.1853 45.2957 51.496 45.2957ZM53.3169 49.7142L55.09 45.4415H55.5017L57.2748 49.7142H56.5955L56.1094 48.5005H54.4828L53.9968 49.7142H53.3169ZM54.725 47.9665L55.308 46.4379L55.8661 47.9665H54.725ZM63.4895 49.7142L65.2367 45.4415H65.6496L67.4226 49.7142H66.7422L66.2573 48.5005H64.6307L64.1446 49.7142H63.4895ZM64.8734 47.9665L65.4563 46.4379L66.0382 47.9665H64.8734ZM71.9381 49.7142L73.71 45.4415H74.1229L75.8948 49.7142H75.2156L74.7058 48.5005H73.104L72.6179 49.7142H71.9381ZM73.3456 47.9665L73.9049 46.4379L74.4878 47.9665H73.3456ZM58.8034 45.927C59.241 45.9766 59.3864 46.1461 59.3864 46.5826C59.3864 46.9955 59.0952 47.2135 58.7319 47.2135H58.1726V45.9265H58.8034V45.927ZM58.8524 47.7232H58.8761C59.192 47.7232 59.7502 47.7964 59.7502 48.5005C59.7502 49.0586 59.2642 49.2045 58.8029 49.2045H58.9008H58.172V47.7232H58.8524ZM58.0267 49.7142H59.1194C59.8719 49.7142 60.43 49.2045 60.43 48.5005C60.43 47.9423 60.0904 47.5294 59.6054 47.3599C59.8719 47.1898 60.0172 46.8738 60.0172 46.4858C60.0172 45.8549 59.6054 45.4421 58.9498 45.4421C58.6102 45.4173 58.2458 45.4421 57.9062 45.4421H57.8814H57.5181V49.7148H58.0267V49.7142ZM62.0567 45.927C62.4695 45.9766 62.6159 46.1461 62.6396 46.5826C62.6396 46.9955 62.3484 47.2135 61.984 47.2135H61.4258V45.9265H62.0567V45.927ZM62.0814 47.7232H62.1051C62.4211 47.7232 62.9793 47.7964 62.9793 48.5005C62.9793 49.0586 62.4943 49.2045 62.033 49.2045H62.1536H61.4258V47.7232H62.0814ZM61.2557 49.7142H62.3732C63.1257 49.7142 63.6602 49.2045 63.6602 48.5005C63.6602 47.9423 63.3194 47.5294 62.8345 47.3599C63.1257 47.1898 63.271 46.8738 63.271 46.4858C63.271 45.8549 62.8345 45.4421 62.2036 45.4421C61.8392 45.4173 61.4996 45.4421 61.1352 45.4421H60.7471V49.7148H61.2557V49.7142ZM67.7138 45.4421H68.1256L71.1124 48.5973V45.4421H71.6953V49.7148H71.2577L68.3204 46.5832V49.7148H67.7138V45.4421Z" fill="black"/>
</svg>
