<svg width="80" height="50" viewBox="0 0 80 50" fill="none" xmlns="http://www.w3.org/2000/svg">
<path fill-rule="evenodd" clip-rule="evenodd" d="M12.2483 46.6954C12.2388 46.7141 12.2202 46.7514 12.211 46.7796C11.2024 48.6849 9.2221 49.9828 6.96197 49.9828C3.68375 49.9828 0.994141 47.2369 0.994141 43.8466C0.994141 40.4751 3.68375 37.7104 6.96197 37.7104C9.23165 37.7104 11.2211 39.0366 12.2202 40.9701C12.2483 41.0074 12.2574 41.026 12.2856 41.082C12.2952 41.0916 10.3804 42.4737 10.3617 42.4459C10.3522 42.4086 10.3431 42.3804 10.3244 42.3617C9.77307 40.9887 8.466 40.0734 6.96197 40.1016C4.9539 40.1203 3.30071 41.7826 3.30071 43.8466C3.30071 45.9293 4.9539 47.6108 6.96197 47.6108C8.41914 47.6108 9.68933 46.7141 10.268 45.4439C10.2962 45.3971 10.3058 45.3598 10.3244 45.3225L12.2483 46.6954Z" fill="black"/>
<path fill-rule="evenodd" clip-rule="evenodd" d="M14.7231 37.8228H17.0206V42.1096H23.0544V37.8228H25.3705V49.7494H23.0544V44.5099H17.0206V49.7494H14.7231V37.8228Z" fill="black"/>
<path fill-rule="evenodd" clip-rule="evenodd" d="M57.7979 49.7494V37.8228H66.138V40.2321H60.1233V42.6137H65.6805V44.9953H60.1233V47.3769H66.9878V49.7494H57.7979Z" fill="black"/>
<path fill-rule="evenodd" clip-rule="evenodd" d="M70.2476 49.7494V37.8228H72.5824V47.3769H79.0644V49.7494H70.2476Z" fill="black"/>
<path fill-rule="evenodd" clip-rule="evenodd" d="M45.264 49.7494H45.1894H42.9292V37.8228H43.0971H46.1698L51.2787 44.9953V37.8228H53.5948V49.7494H51.7456L45.264 40.7553V49.7494Z" fill="black"/>
<path fill-rule="evenodd" clip-rule="evenodd" d="M34.1404 40.2321L32.1046 44.9953H36.2699L34.1404 40.2321ZM31.0582 47.3769L29.9936 49.7494H27.229L32.5154 37.8228H35.7468L41.0704 49.7494H38.3058L37.2321 47.3769H31.0582Z" fill="black"/>
<path fill-rule="evenodd" clip-rule="evenodd" d="M41.2287 33.2293C38.7237 34.6778 35.7269 35.5387 32.534 35.5387C26.0011 35.5387 20.2791 31.9771 17.1843 26.6961C17.1843 26.6715 17.1604 26.6715 17.1604 26.647C17.1604 26.6225 17.1353 26.6225 17.1353 26.5979L19.6404 25.2967L22.1454 24.0187C22.1705 24.0444 22.1956 24.0678 22.2196 24.118C24.3562 27.5803 28.1878 29.8897 32.534 29.8897C33.9349 29.8897 35.2855 29.6444 36.489 29.2507C33.8117 26.1809 32.1907 22.1533 32.1907 17.7565C32.1907 13.3854 33.7877 9.35775 36.4399 6.26225C35.2364 5.84524 33.9098 5.62446 32.534 5.62446C28.2369 5.62446 24.2581 7.93265 22.0724 11.6414C22.0473 11.6659 22.0473 11.6916 22.0473 11.715L17.0132 9.11245C17.0371 9.06339 17.0622 9.01433 17.0862 8.98863C20.157 3.61064 25.952 0 32.534 0C35.7269 0 38.7237 0.859731 41.2287 2.33389C43.7338 0.859731 46.7306 0 49.9223 0C56.5044 0 62.3006 3.61064 65.3704 8.98863C65.3949 9.01433 65.4194 9.06339 65.444 9.11245L60.4094 11.715C60.4094 11.6916 60.4094 11.6659 60.3849 11.6414C58.1993 7.93265 54.2207 5.62446 49.9223 5.62446C48.5477 5.62446 47.221 5.84524 46.0175 6.26225C48.6697 9.35775 50.2668 13.3854 50.2668 17.7565C50.2668 22.1533 48.6458 26.1809 45.9685 29.2507C47.172 29.6444 48.5226 29.8897 49.9223 29.8897C54.2698 29.8897 58.1012 27.5803 60.2377 24.118C60.2622 24.0678 60.2867 24.0444 60.3113 24.0187L62.8157 25.2967L65.3213 26.5979C65.3213 26.6225 65.2968 26.6225 65.2968 26.647C65.2968 26.6715 65.2722 26.6715 65.2722 26.6961C62.1779 31.9771 56.4553 35.5387 49.9223 35.5387C46.7306 35.5387 43.7338 34.6778 41.2287 33.2293ZM41.2287 26.1809C39.1652 23.9954 37.8396 21.0237 37.8396 17.7565C37.8396 14.5395 39.0922 11.6169 41.2287 9.43134C43.3653 11.6169 44.6179 14.5395 44.6179 17.7565C44.6179 21.0237 43.2912 23.9954 41.2287 26.1809Z" fill="black"/>
</svg>
