<svg width="190" height="50" viewBox="0 0 190 50" fill="none" xmlns="http://www.w3.org/2000/svg">
<path fill-rule="evenodd" clip-rule="evenodd" d="M182.262 0.092748V1.56174H185.2V18.7258L176.543 4.80898L173.605 0.0916748H162.858V1.56067H165.719V28.3118H162.858V30.4766H169.893V28.3118H167.961V5.89033L176.543 20.271L182.728 30.4766H187.365V1.56174H189.376V0.092748H182.262ZM185.2 28.3129H183.655L176.543 16.2517L167.961 1.56174H171.053L176.543 10.2984L185.2 23.8286V28.3129ZM75.2589 28.3129H69.9241V1.56174H72.0116V0.092748H58.9453V1.56174H61.806V28.3129H58.9453V30.4777H82.4492V20.3494H80.3617C80.3617 25.6057 79.3566 28.3129 75.2589 28.3129ZM65.7491 28.3129H63.275V1.56174H65.7491V28.3129ZM146.39 0.092748V1.56174H149.173V28.3129H146.39L135.797 0.092748H127.756L118.247 28.3129H113.763V1.56174H116.469V0.092748H105.568L99.8462 12.9271L93.4301 0.092748H83.3791V1.56174H85.2347V28.3129H83.3791V30.4777H89.7963V28.3129H87.4768V6.12335L92.8889 16.6382L97.3732 25.4522L105.568 5.73678V28.3129H103.713V30.4777H123.273V28.3129H120.8L123.814 18.6484H131.005L133.092 18.7258L136.416 28.3129H133.633V30.4777H160.228V28.3129H157.368V1.56174H160.228V0.092748H146.39ZM96.5979 20.1947L92.8868 12.6178L87.4747 1.56174H90.258L92.8868 6.43261L98.2988 16.329L96.5979 20.1947ZM110.283 28.3129H107.809V1.56174H110.283V28.3129ZM131.004 16.5609H124.123L128.221 3.80389L131.004 11.6901L132.705 16.5609H131.004ZM154.043 1.56174V28.3129H151.569V1.56174H154.043ZM138.579 28.3129L131.003 6.50993L129.302 1.56174H132.782L142.446 28.3129H138.579ZM46.1883 0.092748H38.9206L29.6428 28.3129H27.0914V30.4777H34.1271V28.3129H31.421L34.359 19.035H44.3327L47.348 28.3129H44.3327V30.4777H58.1722V28.3129H56.5485L46.1883 0.092748ZM48.8943 28.3129L40.0804 1.56174H43.4049L52.6828 28.3129H48.8943ZM34.6683 17.6433L39.2299 3.80389L43.7915 17.6433H34.6683ZM22.9937 14.86C25.8543 12.9271 26.3955 10.6076 26.3955 7.97892C26.3955 5.3502 24.308 0.092748 19.901 0.092748H0.648438V1.56174H3.58642V28.3129H0.649512V30.4777H19.9021C23.304 30.4777 27.0924 27.0758 27.0924 22.5915C27.0914 18.1846 25.6997 16.7929 22.9937 14.86ZM11.6283 1.56174H16.2672C16.8857 1.56174 17.3496 2.41221 17.7362 3.49462C18.2774 4.96362 18.5094 6.8965 18.5094 7.97892C18.5094 8.75207 18.2001 9.83449 17.7362 10.9169C17.1177 12.4632 16.1126 13.8549 15.1075 13.7776H11.6283V1.56174ZM8.45837 28.3129H5.98427V1.56174H8.45837V28.3129ZM17.7362 27.0758C17.427 27.85 16.8857 28.3129 16.2672 28.3129H11.6283V15.9424H14.8755C15.958 15.9424 17.0404 17.4114 17.7362 19.1123C18.2774 20.3494 18.5867 21.6627 18.5867 22.5915C18.5867 24.1378 18.3547 25.9161 17.7362 27.0758L18.5867 28.3129C19.9784 26.6119 20.133 25.2976 20.133 22.5915C20.133 20.3494 19.1279 17.7207 17.7362 15.8651C17.5169 15.5022 17.2575 15.1651 16.9631 14.86C17.195 14.4734 17.5043 14.1641 17.7362 13.8549C19.1279 12.0766 20.133 9.98912 20.133 7.97892C20.133 5.58214 19.2052 3.64926 18.5867 1.56174C21.37 2.41221 23.4576 4.65436 23.4576 7.97892C23.4576 11.2262 20.9061 12.9271 17.8135 14.86C21.2927 16.7929 23.4576 18.8031 23.4576 22.5915C23.4576 26.38 21.7566 27.6181 18.5867 28.3129L17.7362 27.0758ZM72.9394 40.606C72.4541 40.2756 71.8979 40.0637 71.3158 39.9875C71.0838 39.9875 70.7746 39.9102 70.4653 39.9102H68.8417V49.5746H69.7695V45.3223H70.6199C70.8519 45.3223 71.0838 45.3223 71.3158 45.246C71.9343 45.1687 72.4755 45.013 72.9394 44.7037C73.4806 44.3182 73.7899 43.6213 73.7899 42.6173C73.7899 41.6111 73.4806 40.9915 72.9394 40.606ZM72.3982 44.0852C72.1662 44.2398 71.7797 44.3934 71.3158 44.4707H69.7695V40.7596H70.5426C70.8519 40.7596 71.0838 40.7596 71.3158 40.8369C72.3982 40.9915 72.8621 41.61 72.8621 42.6151C72.8621 43.312 72.7075 43.7759 72.3982 44.0852ZM121.262 44.7037C121.086 44.5317 120.875 44.4001 120.643 44.3182C120.333 44.1625 120.024 43.9316 119.483 43.6997C118.787 43.2347 118.401 42.6935 118.401 42.0761C118.401 41.5338 118.557 41.1483 118.865 40.9163C119.173 40.6844 119.483 40.5298 119.947 40.5298C120.566 40.5298 121.03 40.839 121.415 41.3802L122.034 40.9163C121.725 40.3751 121.415 40.0659 121.107 39.9102C120.721 39.7555 120.411 39.7555 119.947 39.7555C119.251 39.7555 118.632 39.9102 118.246 40.3741C117.782 40.838 117.55 41.3792 117.55 42.075C117.55 42.5389 117.628 42.8482 117.861 43.1574C118.169 43.5429 118.479 43.8522 118.787 44.1625C119.098 44.3182 119.483 44.5491 120.103 44.9357C120.644 45.246 120.952 45.478 121.108 45.5542C121.493 45.9408 121.649 46.4047 121.649 47.1005C121.649 47.719 121.493 48.2602 121.108 48.6468C120.8 48.955 120.334 49.1107 119.793 49.1107C118.787 49.1107 118.247 48.6468 117.861 47.6417L117.165 48.0283C117.473 48.8014 117.861 49.2643 118.325 49.4962C118.789 49.7292 119.251 49.8828 119.793 49.8828C120.411 49.8828 120.952 49.7282 121.416 49.4189C121.804 49.1869 122.035 48.8004 122.268 48.4127C122.423 47.9488 122.501 47.486 122.501 47.021C122.5 46.0943 122.111 45.3222 121.262 44.7037ZM84.7687 39.8318L80.7483 49.5735H81.5987L82.8358 46.3273H86.7015L87.8613 49.5735H88.789L84.846 39.5998L84.7687 39.8318ZM84.7687 45.6315H83.145L84.7687 41.4565V41.3792L86.3923 45.6315H84.7687ZM109.123 49.5746H110.05V39.9102H109.123V49.5746ZM98.2988 45.013H98.3762C98.9174 44.9357 99.5359 44.781 99.9998 44.3945C100.464 44.009 100.696 43.3894 100.696 42.6173C100.696 40.9926 99.9214 40.1421 98.3762 39.9886C98.1431 39.9886 97.9907 39.9112 97.7576 39.9112H96.0567V49.5757H96.9082V45.0141H97.3721L98.3772 46.4057L100.619 49.5757H101.702L98.3772 45.0914L98.2988 45.013ZM96.9082 44.3171V40.7606H98.3762C98.7617 40.838 99.072 40.9163 99.3029 41.1472C99.6905 41.3792 99.8441 41.9204 99.8441 42.5389C99.8441 43.312 99.6132 43.7759 99.2277 44.0079C98.9947 44.0852 98.6843 44.1625 98.3762 44.2398C98.1431 44.2398 97.835 44.3171 97.5268 44.3171H96.9082Z" fill="black"/>
</svg>
