<svg width="316" height="48" viewBox="0 0 316 48" fill="none" xmlns="http://www.w3.org/2000/svg">
<path fill-rule="evenodd" clip-rule="evenodd" d="M17.0978 0.675172L17.2056 1.70561H12.0113L21.8998 37.3819C24.4607 28.8084 29.298 14.0136 31.6822 5.29866C32.0374 3.982 31.433 2.80844 30.5086 2.31175C29.7627 1.92112 28.0538 2.06256 27.0587 2.0272L26.9156 0.675172H38.8683V1.70561C37.2671 1.77632 34.4216 2.06088 33.8525 3.66209C28.8013 17.3558 23.2889 35.8531 19.6604 47.5532H19.0913L5.46838 1.70561H1.0924L0.986328 0.675172H17.0978ZM55.0859 32.0125L43.5271 31.9048C42.3519 35.4271 41.2861 39.6953 40.5032 43.1453C40.2186 44.4973 40.3971 44.9603 40.8231 45.5664C41.2491 46.1726 43.8824 45.7803 45.4836 45.8847L45.3775 46.8814H34.3862L34.2802 45.8847C35.3123 45.7803 37.9086 46.1709 38.2638 45.1388C42.0337 34.5768 47.7246 12.2726 51.4962 0.00168279H52.136L65.2976 45.8847H69.4581V46.8814H53.8433V45.8847H59.1066L55.0859 32.0125ZM49.3949 11.0974L43.8117 31.1218H54.9091L49.3949 11.0974ZM77.3884 2.0272H71.9466V0.675172H88.4504V2.0272H82.9362V45.9924C85.6756 45.9924 88.5211 45.8476 91.2589 45.92C101.681 46.2029 103.708 41.901 103.673 32.1186L104.456 32.0142L104.35 46.8814H71.8759V45.9941H77.3884V2.0272ZM112.922 2.16863H108.155V0.816604H137.287L138.068 12.377L137.32 12.2709C136.859 8.50109 136.68 7.39657 135.079 5.2633C133.478 3.12835 130.562 2.41782 127.396 2.38246L118.646 2.27638L118.54 23.333C120.069 23.2976 121.633 23.2976 123.164 23.1898C124.694 23.1191 127.006 22.3025 127.824 21.1273C128.642 19.952 128.784 17.8541 128.927 14.9026H129.745L129.851 32.0816H128.713C128.713 32.0125 128.678 31.9048 128.678 31.7633C128.642 29.7008 128.927 27.9581 127.683 26.1077C126.937 24.9342 124.517 24.0822 122.382 24.1512L118.542 24.259L118.648 46.0615C123.876 46.0261 132.983 46.9521 136.93 42.9668C138.602 41.2965 139.029 37.7018 139.029 33.9336L140.097 34.006L140.026 46.8798H108.263L108.157 45.9554H112.923V2.16863H112.922ZM176.164 2.27638C175.49 1.63657 172.714 1.88577 171.399 1.88577L171.503 0.676855L182.888 0.747571V1.70729C179.08 1.81336 177.802 1.31667 177.693 5.12187C177.337 15.7916 177.623 39.1262 177.588 47.5549L176.591 47.6273L150.378 3.69913C150.307 10.2084 150.128 33.1878 150.128 42.3287C150.128 46.9168 152.583 45.7786 155.89 45.7062V46.8798H143.831V45.92C149.308 45.7786 149.273 46.0968 149.344 39.3401C149.45 27.3537 149.522 14.618 149.558 1.74264C146.855 1.778 145.466 1.81336 144.116 1.81336V0.675172L155.782 0.745888L176.662 35.4978C176.627 32.0125 176.766 11.8433 176.696 4.51573C176.664 3.2361 176.378 2.41781 176.164 2.27638ZM271.56 2.31175C270.886 1.67193 268.11 1.92113 266.795 1.88577L266.899 0.712207L278.285 0.782923V1.74264C274.476 1.81336 273.233 1.31498 273.089 5.12187C272.733 15.8269 273.02 39.1262 272.984 47.5549L271.987 47.6273L245.775 3.69913C245.703 10.2437 245.526 33.1878 245.526 42.3287C245.526 46.9168 247.979 45.7786 251.288 45.7062V46.8798H239.229V45.92C244.708 45.7786 244.708 46.0968 244.743 39.3754C244.848 27.352 244.92 14.6534 244.957 1.77632C242.29 1.81168 240.866 1.81167 239.515 1.81167V0.708841L251.183 0.779557L272.061 35.4961C272.026 32.0108 272.166 11.8416 272.097 4.5494C272.06 3.27146 271.774 2.45318 271.56 2.31175ZM199.035 1.91944C194.092 1.81336 189.647 2.20399 187.936 4.30358C186.194 6.40318 186.37 9.35473 185.946 14.0843L185.163 14.1904L185.232 0.675172H218.669L218.846 14.2981H217.955C217.496 8.96242 217.6 5.97551 215.788 4.23118C213.973 2.48854 208.781 1.81167 204.758 1.81167L204.654 45.8089L210.133 45.9167V46.9134H193.341V45.9167H198.928L199.035 1.91944ZM226.744 2.0272H221.942V0.675172H237.237V2.0272H232.327V45.8106H237.023V46.9151H221.621V45.8106H226.744V2.0272ZM298.558 0.816604C298.095 0.816604 297.598 0.851961 297.098 0.959719C296.58 1.0684 296.069 1.21069 295.57 1.3857C293.579 2.16694 291.729 4.16046 290.059 7.39657C288.385 10.6697 287.569 16.0761 287.569 23.6882C287.569 31.2296 288.383 36.599 290.022 39.8704C291.692 43.1065 293.507 45.1354 295.463 45.9537C295.996 46.1995 296.529 46.3443 297.029 46.4504C297.526 46.5582 298.026 46.5918 298.558 46.5918C299.055 46.5918 299.555 46.5582 300.087 46.4504C300.619 46.346 301.153 46.2012 301.688 45.9537C303.645 45.0984 305.456 43.0375 307.095 39.798C308.765 36.5266 309.585 31.1555 309.585 23.6882C309.585 16.7867 308.874 11.7709 307.487 8.57012C306.1 5.36937 304.571 3.19907 302.895 2.09623C302.207 1.61387 301.435 1.26438 300.619 1.06579C299.944 0.905913 299.252 0.822336 298.558 0.816604ZM281.307 23.7943C281.307 17.0375 282.873 11.5941 286.003 7.50433C289.133 3.37922 292.547 0.959718 296.315 0.212147C296.706 0.141431 297.098 0.106074 297.489 0.0707158C297.88 -3.07344e-07 298.238 0 298.594 0C303.072 0 307.095 2.20567 310.649 6.68773C314.207 11.1344 315.986 16.8607 315.986 23.796C315.986 30.3406 314.562 35.5685 311.718 39.5185C308.874 43.4685 305.743 45.9571 302.362 46.9875C301.758 47.2361 301.125 47.4042 300.478 47.4876C299.855 47.5878 299.224 47.6351 298.594 47.629C297.608 47.6312 296.627 47.4998 295.677 47.2384C294.608 46.9892 293.542 46.5649 292.438 46.0278C289.666 44.4619 287.104 41.8673 284.792 38.2743C282.445 34.6442 281.271 29.8422 281.307 23.7943Z" fill="black"/>
</svg>
