<svg width="126" height="50" viewBox="0 0 126 50" fill="none" xmlns="http://www.w3.org/2000/svg">
<path fill-rule="evenodd" clip-rule="evenodd" d="M5.45284 1.50733L3.08747 1.38512L2.11248 1.19012L1.91748 0.824167C1.91748 0.482919 2.16123 0.33667 2.64939 0.33667L27.1091 0.33667C38.5706 0.33667 46.6176 3.82395 51.3003 10.8225C53.9829 14.8708 55.3238 19.675 55.3238 25.2351C55.3238 28.1374 54.8851 30.9415 53.9822 33.6481C52.9585 36.5017 51.544 39.0139 49.7149 41.2578C47.7149 43.6225 45.2767 45.4522 42.4719 46.7932C39.4721 48.1589 36.1071 48.8661 32.3273 48.8661H1.13681C0.624608 48.8661 0.380859 48.6951 0.380859 48.4033C0.380859 48.0861 0.746816 47.9158 1.42931 47.9158L7.40416 47.5505C8.33107 47.4276 8.98953 47.1592 9.30674 46.7939L9.91644 45.9397C10.1361 45.3554 10.2584 44.4779 10.2824 43.2825V4.60461C10.2824 3.0927 9.42894 2.16579 7.77079 1.79983L5.45284 1.50733ZM18.6219 2.16579L18.451 3.14145V46.086C18.451 46.5735 18.5485 46.9141 18.7435 47.0369L19.7191 47.1832H22.938L30.4 46.9147C32.3994 46.6957 34.1063 46.3785 35.448 45.9391C36.7819 45.4525 38.0322 44.7618 39.1543 43.8916C40.1299 43.0869 41.1296 41.9403 42.2275 40.4771C44.056 38.0877 45.3729 35.0392 46.1776 31.3081C46.6651 28.8706 46.9095 26.5046 46.9095 24.2367C46.9095 22.2373 46.617 20.091 46.0073 17.7744C45.1538 14.4334 43.861 11.507 42.0318 9.01947C38.4958 4.19124 32.6919 1.80117 24.6689 1.80117L19.7185 1.80117C19.1582 1.75108 18.7922 1.87329 18.6219 2.16579ZM60.1273 48.5001C60.0786 48.2069 60.3223 48.0854 60.8593 48.0854L62.5662 48.036C63.4931 47.9144 64.054 47.5979 64.2731 47.1097L64.5903 45.3541V31.1853C64.5903 30.649 64.3946 30.2343 64.0293 29.9906L62.7612 29.8677L61.0542 30.3318L60.1273 30.2824C60.0051 29.9899 60.3711 29.7214 61.2245 29.4777C63.2487 28.9414 65.0297 28.2583 66.5409 27.4048C67.4672 26.8686 68.1256 26.5754 68.4181 26.4539L69.15 26.3811C69.3938 26.4291 69.5167 26.9173 69.5167 27.7948V45.6452C69.5167 46.498 69.711 47.1084 70.0776 47.4737C70.5157 47.9131 71.5408 48.1321 73.1255 48.1321C73.6864 48.1321 73.9783 48.255 74.0284 48.5221C74.0284 48.7425 73.8574 48.8153 73.5642 48.8153H60.5661C60.2736 48.8173 60.1273 48.6944 60.1273 48.5001ZM117.679 30.9415C116.484 32.1856 115.679 33.6481 115.24 35.4038V45.7688C115.24 46.695 115.557 47.3535 116.216 47.7682L117.704 48.0353L119.264 48.2063C119.631 48.2557 119.777 48.3291 119.777 48.5235L119.704 48.6944L119.289 48.8173H106.243C105.853 48.8173 105.634 48.6944 105.634 48.5001L105.999 48.2069L108.194 48.036C109.047 47.8897 109.584 47.5979 109.877 47.1585L110.243 46.0613V31.4297L109.998 30.3565L109.585 30.1128C109.462 29.9912 109.268 29.9184 108.975 29.869C108.609 29.8456 108.17 29.9184 107.707 30.1128L106.464 30.4547L105.756 30.2837C105.634 30.1128 105.683 29.9912 105.853 29.9184L106.902 29.479C109.291 28.7718 111.218 28.0406 112.56 27.2853L114.217 26.3824L114.949 26.4305L115.242 27.0409V32.4053C117.072 29.4303 118.534 27.6018 119.535 26.9914C120.144 26.6262 120.729 26.333 121.169 26.2114L122.021 26.1387C122.558 26.0892 123.168 26.2602 123.85 26.6996C124.778 27.2359 125.265 28.0406 125.313 29.0643C125.362 29.9184 125.117 30.5776 124.581 31.0884C124.094 31.5031 123.605 31.626 123.167 31.5031C122.753 31.4303 122.436 31.2594 122.216 31.0156L121.533 30.1628C120.997 29.3815 120.485 29.1378 119.876 29.3581C119.166 29.5511 118.435 30.0887 117.679 30.9415ZM66.7119 10.896C65.809 10.896 65.0778 11.2132 64.4687 11.8229C63.8103 12.4326 63.4931 13.2126 63.5412 14.1155C63.4931 14.9689 63.8096 15.7009 64.4687 16.3106C65.0778 16.9203 65.8097 17.2368 66.7119 17.2368C67.5647 17.2368 68.3213 16.9196 68.9303 16.3106C69.5394 15.7009 69.8813 14.9696 69.8813 14.1155C69.8813 13.2126 69.5394 12.4326 68.9303 11.8229C68.3213 11.2132 67.5647 10.896 66.7119 10.896ZM79.6366 30.3558C80.5141 29.1859 81.6126 28.2102 82.9289 27.4302C84.1002 26.747 85.2702 26.3083 86.4896 26.0879L91.0013 25.8208C92.6341 25.8936 94.1473 26.2108 95.513 26.8198C98.8052 28.283 100.877 30.9662 101.657 34.8675C102.462 38.8183 101.78 42.16 99.6333 44.8666C97.8049 47.1585 95.3901 48.6216 92.3422 49.2554C89.1481 49.9626 86.1731 49.7429 83.4898 48.6464C80.0019 47.2313 77.8816 44.4272 77.1978 40.3302C76.5881 36.4536 77.3928 33.1606 79.6366 30.3558ZM93.9263 29.2593C92.4391 27.6018 90.5612 26.8699 88.2927 27.0642C86.0989 27.2846 84.4161 28.5027 83.3182 30.8193C82.3191 32.9169 81.9525 35.4786 82.3191 38.5017C82.5863 41.5015 83.5386 43.8909 85.0738 45.72C86.708 47.6466 88.5618 48.4514 90.634 48.0861C92.8043 47.6714 94.3904 46.5 95.4388 44.55C96.4626 42.5506 96.8279 39.9656 96.5841 36.6733C96.2923 33.381 95.4395 30.9415 93.9263 29.2593ZM59.9564 30.3325V30.5762L59.4195 30.2343V30.3558L59.4682 30.5762H59.3948V30.1121H59.4195L59.907 30.4787V30.1121H60.0045L59.9564 30.3325Z" fill="black"/>
<path fill-rule="evenodd" clip-rule="evenodd" d="M60.8585 30.1616H60.566V30.3325H60.8097V30.3559H60.566V30.5269H60.8585V30.577H60.4932V30.1122H60.8585V30.1616ZM62.2001 30.1122H62.2248L61.981 30.5763H61.9076L61.7126 30.2097L61.4929 30.5763H61.4682C61.346 30.3559 61.2491 30.2097 61.2244 30.1122H61.3466L61.4929 30.4788L61.7126 30.1122H61.7854L61.9563 30.4788L62.1513 30.1122H62.2001ZM62.8826 30.3559L62.9313 30.577H62.8098V30.406L62.566 30.1122H62.6876L62.8826 30.3559L63.0776 30.1122H63.1757L62.8826 30.3559ZM63.5657 30.2103C63.6138 30.1623 63.7367 30.1129 63.8582 30.1129C63.9811 30.1129 64.0539 30.1623 64.1514 30.2103C64.1748 30.2351 64.2242 30.2831 64.2242 30.3566L64.1514 30.5275C64.0539 30.577 63.9804 30.577 63.8582 30.577C63.7367 30.577 63.6145 30.577 63.5657 30.5275L63.4429 30.3566C63.4435 30.2831 63.4929 30.2351 63.5657 30.2103ZM64.0539 30.2103L63.8582 30.1623L63.6639 30.2103C63.6145 30.2351 63.5664 30.2831 63.5664 30.3566C63.5664 30.406 63.6145 30.4541 63.6639 30.4795L63.8582 30.577C63.931 30.577 64.0292 30.5275 64.0539 30.4795C64.102 30.4548 64.1514 30.4067 64.1514 30.3566C64.1514 30.2831 64.102 30.2351 64.0539 30.2103ZM64.7851 30.1616L64.7604 30.3325H64.8332C64.9548 30.3325 65.0289 30.2831 65.0289 30.2351C65.0289 30.2103 65.0042 30.1623 64.8813 30.1623H64.7851V30.1616ZM64.9067 30.1122C65.0296 30.1122 65.1257 30.1616 65.1257 30.2351L65.0289 30.3325L64.906 30.3559L65.1992 30.5763H65.0763L64.7838 30.3559H64.7604L64.7851 30.5763H64.6623V30.1122H64.9067ZM66.1261 30.1122L65.8096 30.3325L66.1261 30.577H66.0052L65.7361 30.3559V30.3325L65.6867 30.3559L65.7361 30.577H65.6139V30.1122H65.7361L65.6867 30.3325H65.7361L66.0533 30.1122H66.1261Z" fill="black"/>
</svg>
