<svg width="174" height="50" viewBox="0 0 174 50" fill="none" xmlns="http://www.w3.org/2000/svg">
<path fill-rule="evenodd" clip-rule="evenodd" d="M7.51161 0.0689697L2.92183 11.5434C2.22298 13.2391 1.42445 14.2371 0.427563 14.4364H0.228186V15.2339H4.91765V14.4364H4.71828C3.72036 14.4364 3.22192 14.0366 3.22192 13.2391L3.92077 11.0439L4.21983 10.2454H9.50846L10.9051 13.7376C10.9051 14.236 10.4067 14.4364 9.40774 14.4364H9.20837V15.2339H15.4939V14.4364H15.3942C14.8957 14.4364 14.3963 14.2371 14.1969 13.938L13.199 11.9422L8.21045 0.0689697H7.51161ZM9.40671 9.4479H4.51787L6.91245 3.76053L9.40671 9.4479ZM26.8676 1.06688C25.9694 1.06688 25.3702 1.26626 25.1719 1.46666C24.9725 1.9651 24.8718 2.56324 24.8718 3.76053V11.9422C24.8718 13.0398 24.9715 13.7386 25.1719 13.938C25.3713 14.2371 25.9704 14.4364 27.1677 14.4364H27.9662C29.3629 14.4364 30.3608 14.0366 30.96 13.2391C31.4584 12.7407 31.8582 11.7418 32.1573 10.5445H32.9548L32.8551 15.2339H19.8832V14.4364H20.3817C21.1802 14.4364 21.6787 14.2371 21.8791 13.938C21.9788 13.5382 22.1781 12.7407 22.1781 11.5434V3.76053C22.1781 2.56324 21.9788 1.76573 21.8791 1.46666C21.6797 1.26729 20.9808 1.06688 20.1823 1.06688H19.8832V0.468751H27.3671V1.06688H26.8676ZM47.1229 4.95781V9.94634H46.3243V9.74697C46.3243 8.94946 46.1249 8.44999 45.9256 8.05124L44.3295 7.75217H42.8321V11.4437C42.8321 12.7407 42.9318 13.5392 43.1322 13.938C43.3316 14.2371 43.9297 14.4364 44.9277 14.4364H45.8259C47.3222 14.4364 48.3201 14.0366 48.9193 13.2391C49.4177 12.4406 49.9172 11.5434 50.1166 10.5445H50.9141L50.615 15.2339H37.9433V14.4364H38.1427C38.9402 14.4364 39.4397 14.2371 39.8384 13.938C39.9381 13.5382 39.9381 12.7407 39.9381 11.5434V3.76053C39.9381 2.56324 39.9381 1.96511 39.8384 1.56532C39.408 1.23906 38.8821 1.06387 38.342 1.06688H38.1427V0.468751H49.3181L49.6171 4.06062H48.9193C48.8186 3.06271 48.4198 2.46355 48.1208 2.06479C47.6213 1.46564 46.6234 1.06688 45.127 1.06688H42.8321V6.95364H44.3295C45.127 6.95364 45.6265 6.75426 45.9256 6.55488C46.1249 6.4552 46.3243 5.95573 46.3243 5.05853V4.95781H47.1229ZM73.0655 15.235H65.0832V14.4375H65.2826C66.3802 14.4375 67.079 14.2381 67.079 13.7386L66.0811 11.9422L63.5869 8.94843L61.292 11.5424L60.2941 13.4385C60.2941 14.0366 60.7925 14.4364 61.591 14.4364H61.7904V15.2339H55.804V14.4364H55.9037C57.3003 14.2371 58.7967 13.2391 60.2941 11.4427L63.0874 8.24959L59.2961 3.7595L57.4 1.46564C57.1009 1.26626 56.6025 1.06585 55.9037 1.06585H55.804V0.467724H62.888V1.06585H62.5889C61.7904 1.06585 61.3917 1.26523 61.3917 1.7647L62.2899 3.06168L64.7841 6.25479L67.2784 3.26106C67.7779 2.56221 68.0769 2.06377 68.0769 1.96408C68.0769 1.46564 67.5785 1.06585 66.5806 1.06585H66.3812V0.467724H72.0686V1.06585H71.8692C71.0707 1.06585 70.3718 1.26523 69.8734 1.7647L67.7779 3.9599L65.3823 6.75426L69.0738 11.4437L71.269 13.938L73.0655 14.4364V15.235ZM91.8233 14.4364C91.3239 14.4364 90.8254 14.2371 90.7257 13.938L89.7278 11.9422L84.7393 0.0689697H84.0405L79.351 11.5434L78.2534 13.7386C77.8546 14.0377 77.3552 14.2371 76.8567 14.4375H76.757V15.235H81.3468V14.4375H81.2471C80.2492 14.4375 79.7508 14.0377 79.7508 13.2402L80.3489 11.045L80.7487 10.2464H86.0373L87.0352 12.4416L87.3343 13.7386C87.3343 14.2371 86.8348 14.4375 85.8369 14.4375H85.7382V15.235H92.0227V14.4375H91.8233V14.4364ZM85.7372 9.4479H81.0467L83.3416 3.76053L85.7372 9.4479ZM112.278 1.06688C111.479 1.26626 110.783 1.56532 110.482 2.06479L110.283 3.46146V15.5351H109.685L99.3072 2.56324V11.7428C99.3072 12.7407 99.3072 13.2402 99.5055 13.4395C100.005 14.0377 100.704 14.4375 101.502 14.4375H101.801V15.235H96.2127V14.4375H96.3134C97.3113 14.4375 98.0092 14.0377 98.3082 13.4395L98.5066 11.7428V3.9599C98.5066 2.56324 98.3082 1.7647 97.8077 1.46564L96.5108 1.06585H96.3124V0.467724H100.802L109.482 11.0439V3.46043C109.482 2.46252 109.283 1.7647 108.984 1.5643L107.288 1.06585H107.188V0.467724H112.476V1.06585H112.278V1.06688ZM129.939 1.56532C128.241 0.767817 125.947 0.268347 122.756 0.268347H119.761L117.665 0.467724V1.06585H117.966C118.763 1.06585 119.263 1.26523 119.662 1.5643L119.761 3.95888V11.5424L119.662 13.937C119.231 14.2633 118.705 14.4385 118.165 14.4354H117.665V15.2329H123.653L128.641 14.7345C131.735 13.7366 133.232 11.4417 133.232 7.9495C133.231 4.95782 132.133 2.76261 129.939 1.56532ZM127.444 1.7647C129.24 2.76261 130.138 4.95679 130.138 8.05021C130.138 10.4448 129.638 12.2412 128.442 13.4385C127.643 14.0366 126.246 14.4364 124.451 14.4364C123.653 14.4364 123.152 14.2371 122.954 13.938C122.756 13.4395 122.655 12.5413 122.655 11.045V1.06688L123.952 0.967193C125.449 0.967193 126.645 1.26626 127.444 1.7647ZM151.889 10.5455L151.691 15.235H138.918V14.4375H139.217C140.117 14.4375 140.614 14.2381 140.715 13.939C140.913 13.5392 141.115 12.7417 141.115 11.5444V3.76155C141.115 2.56426 140.914 1.96613 140.715 1.56635C140.614 1.26729 140.117 1.06791 139.418 1.06791H139.217V0.469786H150.592L150.693 4.06165H150.095C149.894 3.26311 149.595 2.56426 149.196 2.06582C148.698 1.46666 147.6 1.06791 146.102 1.06791H143.908V6.95467H145.403C146.202 6.95467 146.702 6.75529 146.901 6.55591C147.2 6.45622 147.4 5.95675 147.4 5.05956V4.95884H148.197V9.94737H147.4V9.748C147.4 8.95049 147.2 8.45102 147.099 8.05227L145.403 7.7532H143.908V11.4447C143.908 12.7417 144.106 13.5403 144.207 13.939C144.405 14.2381 145.104 14.4375 146.102 14.4375H146.901C148.398 14.4375 149.396 14.0377 149.893 13.2402C150.393 12.4416 150.891 11.5444 151.192 10.5455H151.889ZM173.141 15.235V14.4375C172.044 14.4375 170.648 13.4395 169.151 11.4437C167.854 9.4479 166.857 8.25062 166.057 7.75217C168.65 7.25373 170.048 6.05644 170.048 4.06062C170.048 2.76261 169.349 1.76573 168.053 1.06688C167.055 0.468752 165.359 0.0689697 163.065 0.0689697L157.376 0.468751V1.06688H157.577C158.375 1.06688 159.072 1.26626 159.173 1.46666L159.572 3.76053V11.5434L159.173 13.938C159.072 14.2371 158.574 14.4364 157.675 14.4364H157.178V15.2339H164.661V14.4364H164.062C163.163 14.4364 162.666 14.2371 162.565 13.938C162.367 13.5382 162.165 12.7407 162.165 11.5434V8.25062H162.366C163.162 8.25062 163.663 8.44999 164.061 8.54968L166.157 11.4437C167.353 13.4395 168.351 14.7365 169.049 15.235H173.141ZM166.857 4.06062C166.857 6.05541 166.158 7.05333 164.661 7.2527L162.165 7.45208V1.06585H163.163C164.56 1.06585 165.56 1.26523 166.057 1.7647C166.558 2.26417 166.857 2.96199 166.857 4.06062ZM21.6797 23.9171L13.4981 41.9761H12.6995L4.21881 23.9171V35.89C4.21881 37.6844 4.41818 38.8827 4.91765 39.4808C5.21672 40.4787 6.01525 40.9782 7.41192 40.9782H7.51263V41.9761H0.0288086V40.9782H0.228186C1.42547 40.9782 2.22401 40.4787 2.72348 39.4808C3.02254 38.8827 3.22192 37.486 3.22192 35.6896V25.9119C3.22192 24.0147 3.02254 23.0178 2.72348 22.5184C2.42339 22.0199 1.72557 21.9192 0.528278 21.9192H0.0298367V20.9213H7.21357L14.497 37.1859L21.8811 20.9213H28.9652V21.9192H28.366C27.1687 21.9192 26.3702 22.2193 25.9714 22.7178C25.6713 23.2162 25.473 24.2151 25.473 25.9109V36.9845C25.473 38.6823 25.6724 39.8785 26.1708 40.377C26.3702 40.8765 26.9693 40.9772 28.1666 40.9772H28.9652V41.9751H18.4866V40.9772H18.985C20.1823 40.9772 20.8812 40.8765 21.1802 40.377C21.4793 39.8796 21.6787 38.6833 21.6787 36.9845V23.9171H21.6797ZM37.1458 31.3999C37.1458 35.6896 38.8415 38.8827 42.3337 40.8785C44.1301 41.9761 46.1249 42.4746 48.4198 42.4746L49.6171 42.3759L44.9277 44.9688C43.8301 45.4683 43.3316 45.9667 43.3316 46.4662C43.3316 46.9636 43.6307 47.165 44.1301 47.165L45.4271 46.4662C46.3253 45.6677 47.3233 45.1672 48.3212 45.1672C49.8175 45.1672 51.614 45.8681 53.6098 47.3634L55.805 48.8608C57.3024 49.6573 58.5983 49.9563 60.0957 49.9563C63.7873 49.9563 65.7831 48.1619 66.2826 44.6687H65.2846C64.7862 46.1661 63.5889 46.865 61.7925 46.865C60.3958 46.865 58.7987 46.4652 56.8039 45.6666C53.8102 44.4704 51.317 43.9709 49.3211 43.9709L48.8217 44.1693L52.6129 41.9751C55.1082 41.1765 56.9036 39.8796 58.3003 37.9824C59.7966 36.188 60.3958 33.9918 60.3958 31.4986C60.3958 28.4031 59.2982 25.7094 57.103 23.5153C54.9078 21.5194 52.3138 20.5205 48.8206 20.5205C45.3295 20.5205 42.4354 21.5184 40.3399 23.5153C38.1427 25.5121 37.1458 28.2058 37.1458 31.3999ZM48.6192 21.7198C50.316 21.7198 51.8123 22.2193 53.1093 23.2172C54.9057 24.7136 55.8029 27.4072 55.8029 31.5006C55.8029 34.1943 55.3045 36.3884 54.4063 37.9845L53.3087 39.4818C52.1114 40.6802 50.615 41.379 48.8186 41.379C46.424 41.379 44.828 40.4798 43.6307 38.9844C42.3337 36.9876 41.6349 34.3936 41.6349 31.2005C41.6349 28.5069 42.1343 26.4114 43.1322 24.7146C44.3295 22.7188 46.1249 21.7198 48.6192 21.7198ZM71.269 25.9119C71.269 24.0147 71.0697 23.0178 70.7706 22.5184C70.3718 22.0199 69.5733 21.9192 68.376 21.9192H68.0769V20.9213H78.2544V21.9192H77.8557C76.7581 21.9192 75.8598 22.0199 75.5608 22.5184C75.2607 23.0178 75.0603 24.0147 75.0603 25.9119V32.9959C75.0603 35.89 75.3604 37.8858 75.8588 38.6843C76.757 40.1797 78.3531 40.9782 80.8473 40.9782C82.244 40.9782 83.3426 40.6791 84.5399 39.9803C85.7382 39.3801 86.3364 38.4829 86.8338 37.3853C87.0342 36.6865 87.2336 35.1911 87.2336 32.9959V25.7115C87.2336 24.4145 87.0352 23.4176 86.5347 22.9171C86.2356 22.4197 85.3385 22.0199 84.2409 21.9202H84.0415V20.9223H91.5253V21.9202H91.2262L89.5305 22.5194C88.732 23.0178 88.3322 23.9171 88.3322 25.2141V34.3936C88.3322 37.188 87.5337 39.1828 86.0383 40.4798C84.541 41.8764 82.3457 42.4746 79.7518 42.4746C76.5587 42.4746 74.0644 41.4766 72.5681 39.4818C71.3708 38.1849 71.0707 36.4891 71.2701 34.4933V25.9119H71.269ZM110.783 27.4072H111.781V34.4933H110.783V34.3926C110.783 33.1943 110.682 32.3978 110.182 31.998C109.783 31.699 108.986 31.5006 107.788 31.5006H105.692V36.4891C105.692 38.4839 105.793 39.6823 106.192 40.1807C106.491 40.6802 107.289 40.9792 108.785 40.9792H109.983C111.978 40.9792 113.475 40.379 114.273 39.1828C115.172 38.1849 115.669 36.8889 116.17 35.3915H117.168L116.768 41.9771H98.709V40.9792H99.2065C100.304 40.9792 101.003 40.8785 101.302 40.379C101.702 39.8816 101.801 38.6854 101.801 36.9866V25.9119C101.801 24.2162 101.701 23.0178 101.302 22.5184C101.003 22.0199 100.304 21.9192 99.2065 21.9192H99.0081V20.9213H115.173L115.472 26.2099H114.474C114.202 25.1499 113.765 24.1395 113.177 23.2162C112.752 22.7839 112.242 22.4442 111.68 22.2183L108.986 22.0189H105.692V30.401H107.788C108.986 30.401 109.783 30.2006 110.182 29.9015C110.682 29.4041 110.783 28.7052 110.783 27.5069V27.4072ZM139.217 23.2172L137.921 22.2193L135.126 22.0199H131.734V30.402H133.93C135.126 30.402 135.726 30.2016 136.224 29.9025C136.624 29.4051 136.723 28.7063 136.723 27.5079V27.4072H137.919V34.4933H136.723V34.3926C136.723 33.1943 136.622 32.3978 136.224 31.998C135.925 31.699 135.126 31.5006 133.93 31.5006H131.734V36.4891C131.734 38.4839 131.934 39.6823 132.233 40.1807C132.633 40.6802 133.429 40.9792 134.927 40.9792H136.123C138.12 40.9792 139.615 40.379 140.415 39.1828C141.213 38.1849 141.712 36.8889 142.211 35.3915H143.209L142.91 41.9771H124.75V40.9792H125.248C126.446 40.9792 127.145 40.8785 127.444 40.379C127.743 39.8816 127.941 38.6854 127.941 36.9866V25.9119C127.941 24.2162 127.743 23.0178 127.444 22.5184C127.145 22.0199 126.446 21.9192 125.449 21.9192H125.15V20.9213H141.214L141.612 26.2099H140.614C140.268 25.1607 139.8 24.1562 139.217 23.2172ZM170.649 25.4124V42.4746H169.552L155.083 24.0158V37.187C155.083 38.4839 155.184 39.3811 155.382 39.6823C155.882 40.4787 156.88 40.9792 158.177 40.9792H158.577V41.9771H150.694V40.9792C152.191 40.8785 153.189 40.4798 153.588 39.6823C153.687 39.3811 153.887 38.4839 153.887 37.187V26.0106C153.887 24.0158 153.588 22.9171 153.089 22.4197L150.892 21.9202H150.694V20.9223H157.378L169.551 36.189V25.2131C169.551 23.9161 169.151 23.0168 168.651 22.5184C168.154 22.0199 167.354 21.9192 166.558 21.9192H166.158V20.9213H173.84V21.9192H173.541C172.345 22.0199 171.546 22.4187 171.046 23.2162C170.847 23.7157 170.649 24.4145 170.649 25.4124Z" fill="black"/>
<path fill-rule="evenodd" clip-rule="evenodd" d="M49.1186 27.4072C47.3222 27.4072 46.4239 28.7062 46.4239 31.1984C46.4239 33.9928 47.4219 35.3895 49.317 35.3895C50.6139 35.3895 51.4125 34.6906 51.9109 33.3947L52.6087 33.6937C52.1103 35.3895 50.8123 36.189 48.8175 36.189C47.3211 36.189 46.1239 35.6896 45.3264 34.892C44.4281 33.9928 43.9297 32.8952 43.9297 31.4996C43.9297 30.0022 44.4281 28.9046 45.426 28.0074C46.4239 27.0095 47.6212 26.51 49.1186 26.51C49.9161 26.51 50.8143 26.7084 51.4125 27.2089C51.9119 27.5079 52.3107 28.0074 52.3107 28.5058C52.3114 28.624 52.2886 28.7412 52.2437 28.8505C52.1988 28.9599 52.1327 29.0592 52.0492 29.1428C51.9657 29.2265 51.8664 29.2927 51.7571 29.3377C51.6478 29.3827 51.5307 29.4056 51.4125 29.4051C50.914 29.4051 50.4146 29.0053 50.3159 28.2068C50.1165 27.7083 49.8164 27.4072 49.1186 27.4072Z" fill="black"/>
</svg>
