<svg width="18" height="19" viewBox="0 0 18 19" fill="none" xmlns="http://www.w3.org/2000/svg">
<path d="M13.2803 9.71969C12.987 9.42644 12.513 9.42644 12.2198 9.71969L11.0243 10.9152C10.47 10.7502 9.43576 10.3752 8.78026 9.71969C8.12476 9.06419 7.74976 8.02994 7.58476 7.47569L8.78026 6.28019C9.07351 5.98694 9.07351 5.51294 8.78026 5.21969L5.78026 2.21969C5.48701 1.92644 5.01301 1.92644 4.71976 2.21969L2.68576 4.25369C2.40076 4.53869 2.24026 4.93019 2.24626 5.32994C2.26351 6.39794 2.54626 10.1074 5.46976 13.0309C8.39326 15.9544 12.1028 16.2364 13.1715 16.2544C13.1753 16.2544 13.1888 16.2544 13.1925 16.2544C13.5885 16.2544 13.9628 16.0984 14.2463 15.8149L16.2803 13.7809C16.5735 13.4877 16.5735 13.0137 16.2803 12.7204L13.2803 9.71969ZM13.185 14.7537C12.249 14.7379 9.04651 14.4867 6.53026 11.9697C4.00576 9.44519 3.76126 6.23144 3.74626 5.31419L5.25001 3.81044L7.18951 5.74994L6.21976 6.71969C6.04051 6.89819 5.96401 7.15619 6.01576 7.40369C6.03376 7.48994 6.47401 9.53519 7.71901 10.7802C8.96401 12.0252 11.0093 12.4654 11.0955 12.4834C11.3453 12.5367 11.601 12.4594 11.7795 12.2802L12.75 11.3104L14.6895 13.2499L13.185 14.7537Z" fill="white"/>
</svg>
