<svg width="21" height="13" viewBox="0 0 21 13" fill="none" xmlns="http://www.w3.org/2000/svg">
<path d="M20.6727 11.3154C20.6727 11.2324 20.5897 11.2324 20.5897 11.1494C20.2576 10.4852 19.5104 9.655 18.5141 8.74175C18.016 8.32663 17.7669 7.99453 17.6009 7.82849C17.3518 7.4964 17.3518 7.24734 17.4348 6.91524C17.5179 6.66618 17.8499 6.25105 18.4311 5.50384C18.7632 5.08873 18.9292 4.83967 19.1783 4.5906C20.4236 2.93014 21.0048 1.85084 20.8387 1.3527L20.7557 1.26968C20.6727 1.18666 20.5897 1.10364 20.4236 1.10364C20.2576 1.02062 20.0085 1.02062 19.7595 1.10364H16.6046C16.5216 1.10364 16.5216 1.10364 16.3555 1.10364C16.2725 1.10364 16.1895 1.10364 16.1895 1.10364H16.1065H16.0234L15.9404 1.18665C15.8574 1.26968 15.8574 1.26967 15.8574 1.3527C15.5253 2.26595 15.1102 3.01316 14.6951 3.84339C14.446 4.2585 14.1969 4.67362 13.9479 5.00571C13.6988 5.33781 13.5327 5.58687 13.3667 5.75292C13.2006 5.91896 13.0346 6.00198 12.9516 6.16803C12.8685 6.25105 12.7025 6.33408 12.7025 6.25106C12.6195 6.25106 12.5365 6.25105 12.5365 6.16803C12.4534 6.08501 12.3704 6.00198 12.2874 5.91896C12.2044 5.83594 12.2044 5.66989 12.1213 5.50384C12.1213 5.3378 12.1213 5.17175 12.1213 5.08873C12.1213 5.00571 12.1213 4.75665 12.1213 4.5906C12.1213 4.34153 12.1213 4.17548 12.1213 4.09246C12.1213 3.84339 12.1213 3.5113 12.1213 3.17921C12.1213 2.84712 12.1213 2.59804 12.1213 2.432C12.1213 2.26595 12.1213 2.01689 12.1213 1.85084C12.1213 1.60177 12.1213 1.43572 12.1213 1.3527C12.1213 1.26967 12.0383 1.10363 12.0383 1.02061C11.9553 0.937588 11.8723 0.854563 11.7893 0.77154C11.7062 0.688517 11.5402 0.688519 11.4572 0.605496C11.0421 0.522474 10.5439 0.439453 9.96276 0.439453C8.6344 0.439453 7.72114 0.522479 7.38905 0.688524C7.223 0.771547 7.05696 0.854565 6.97393 1.02061C6.80789 1.18666 6.80788 1.26968 6.89091 1.26968C7.30602 1.35271 7.63812 1.51874 7.80416 1.76781L7.88719 1.93387C7.97021 2.01689 7.9702 2.18293 8.05322 2.432C8.13624 2.68107 8.13625 2.93014 8.13625 3.26223C8.13625 3.76037 8.13625 4.25851 8.13625 4.5906C8.13625 5.00571 8.05322 5.25478 8.05322 5.50384C8.05322 5.75291 7.97021 5.91896 7.88719 6.00199C7.80417 6.16803 7.80416 6.25106 7.72113 6.25106C7.72113 6.25106 7.72113 6.33407 7.63811 6.33407C7.55508 6.33407 7.47207 6.4171 7.30602 6.4171C7.223 6.4171 7.05696 6.33408 6.97393 6.25106C6.80789 6.16804 6.64184 6.00199 6.55882 5.83594C6.39277 5.6699 6.22672 5.42082 6.06068 5.08873C5.89463 4.75664 5.64555 4.42455 5.47951 3.92641L5.31348 3.59433C5.23045 3.42828 5.06441 3.09618 4.89836 2.68107C4.73231 2.26595 4.56626 1.93387 4.40022 1.51875C4.31719 1.35271 4.23418 1.26968 4.15116 1.18665H4.06813C4.06813 1.18665 3.9851 1.10364 3.90208 1.10364C3.81905 1.10364 3.73604 1.02061 3.65302 1.02061H0.664186C0.332094 1.02061 0.166051 1.10363 0.083028 1.18665L0 1.26968C0 1.26968 0 1.3527 0 1.43573C0 1.51875 5.06608e-06 1.60177 0.083028 1.76781C0.498143 2.76409 0.996278 3.76037 1.49442 4.75664C1.99255 5.6699 2.4907 6.50013 2.82279 7.08129C3.2379 7.66245 3.56999 8.24361 3.9851 8.74175C4.40022 9.23988 4.64928 9.57197 4.7323 9.73802C4.89835 9.90406 4.98137 9.98708 5.06439 10.0701L5.31348 10.3192C5.47952 10.4852 5.72858 10.7343 6.06068 10.9834C6.39277 11.2324 6.80788 11.4815 7.22299 11.7306C7.63811 11.9796 8.13625 12.1457 8.63439 12.3117C9.21555 12.4778 9.71369 12.5608 10.2118 12.4778H11.4572C11.7062 12.4778 11.8723 12.3948 12.0383 12.2287L12.1213 12.1457C12.1213 12.0627 12.2044 12.0627 12.2044 11.9796C12.2044 11.8966 12.2044 11.8136 12.2044 11.6475C12.2044 11.3155 12.2044 11.0664 12.2874 10.8173C12.3704 10.5683 12.3704 10.4022 12.4535 10.2362C12.5365 10.0701 12.6195 9.98708 12.7025 9.90406C12.7855 9.82104 12.8686 9.73802 12.8686 9.73802H12.9516C13.1176 9.655 13.3667 9.73802 13.5327 9.90406C13.7818 10.0701 14.0309 10.3192 14.1969 10.5682C14.363 10.8173 14.612 11.0664 14.9441 11.3985C15.2762 11.7306 15.5253 11.9796 15.6913 12.0627L15.9404 12.2287C16.1064 12.3117 16.2725 12.3948 16.5216 12.4778C16.7706 12.5608 16.9367 12.5608 17.1027 12.5608L19.9255 12.4778C20.1746 12.4778 20.4236 12.3948 20.5897 12.3117C20.7557 12.2287 20.8387 12.1457 20.8387 11.9796C20.8387 11.8966 20.8387 11.7306 20.8387 11.6475C20.6727 11.4815 20.6727 11.3985 20.6727 11.3154Z" fill="white"/>
</svg>
